<svg width="41" height="38" viewBox="0 0 41 38" fill="none" xmlns="http://www.w3.org/2000/svg">
<path fill-rule="evenodd" clip-rule="evenodd" d="M0.531006 27.0232C0.531006 26.1948 1.20258 25.5232 2.031 25.5232L2.66068 25.5232H4.93876V23.8748L4.93876 22.9303V21.9858C4.93876 21.1574 5.61033 20.4858 6.43876 20.4858H7.06844L8.32775 20.4858H8.3278L10.2168 20.4857H10.2168H10.8549L16.0663 15.2743C15.5546 13.5853 15.1777 11.7685 15.3337 9.8973C15.5227 7.62848 16.4807 5.41474 18.6014 3.29409C22.2069 -0.311458 29.4612 -1.82028 34.5756 3.29408C36.6981 5.41657 37.9914 8.12781 38.0839 10.9968C38.1359 12.6088 37.8071 14.2275 37.0772 15.7727L34.5007 14.1872C34.9386 13.1493 35.118 12.1038 35.0855 11.0935C35.0206 9.08245 34.1099 7.07104 32.4543 5.41541C28.7532 1.71433 23.4139 2.72415 20.7227 5.41541C19.0653 7.07284 18.4491 8.63718 18.3233 10.1464C18.1921 11.7204 18.5811 13.3699 19.1961 15.2146C19.3757 15.7536 19.2355 16.3478 18.8337 16.7496L12.5369 23.0464C12.2555 23.3277 11.874 23.4857 11.4762 23.4857H10.2169H10.2168L8.32784 23.4858H8.3278H7.93876V23.8748V26.0593V27.0232C7.93876 27.8516 7.26719 28.5232 6.43876 28.5232H5.80908H3.53101L3.53101 33.0793H7.70647L12.3046 28.4812L12.3046 28.4812L16.7124 24.0735L17.7731 25.1342L18.8337 26.1948L18.8337 26.1949L14.4259 30.6025L14.4259 30.6026L9.38846 35.64C9.10715 35.9213 8.72562 36.0793 8.3278 36.0793H2.03101C1.20258 36.0793 0.531006 35.4077 0.531006 34.5793V33.6154V27.9483V27.0232ZM19.1499 21.636L18.5227 22.2632L17.2338 23.5521L16.8513 23.9346L16.7482 24.0377L16.7215 24.0644L16.7147 24.0712L16.713 24.073L16.7125 24.0734L16.7124 24.0735L17.7731 25.1342L18.8338 26.1948L18.8339 26.1947L18.8343 26.1943L18.836 26.1925L18.8428 26.1857L18.8695 26.159L18.9727 26.0559L19.1499 25.8786V21.636Z" fill="#3271DD"/>
<path d="M39.469 20.9408L31.1495 15.9011L22.1899 20.9408M39.469 20.9408V31.0203L31.1495 36.06M39.469 20.9408L31.1495 25.9805M31.1495 36.06L22.1899 31.0203V20.9408M31.1495 36.06V25.9805M22.1899 20.9408L31.1495 25.9805" stroke="url(#paint0_linear_1430_5921)" stroke-width="3" stroke-linecap="round" stroke-linejoin="round"/>
<defs>
<linearGradient id="paint0_linear_1430_5921" x1="36.8739" y1="31.4784" x2="24.8812" y2="31.7876" gradientUnits="userSpaceOnUse">
<stop stop-color="#2E90FA"/>
<stop offset="1" stop-color="#3271DD"/>
</linearGradient>
</defs>
</svg>
