<svg width="54" height="37" viewBox="0 0 54 37" fill="none" xmlns="http://www.w3.org/2000/svg">
<path fill-rule="evenodd" clip-rule="evenodd" d="M6.81422 5.96196C4.64952 7.81742 3.25342 10.3346 3.25342 13.1308C3.25342 16.1243 4.25128 18.7929 5.32603 21.0767C5.59401 21.6462 5.86328 22.1849 6.12278 22.7017L6.18044 22.8165L6.18046 22.8165C6.41659 23.2867 6.64772 23.7468 6.84911 24.1748C7.24731 25.0209 7.68419 26.0395 7.68419 26.9769V26.9873V26.9978V27.0083V27.0189V27.0295V27.0402V27.0509V27.0617V27.0726V27.0834V27.0944V27.1054V27.1164V27.1275V27.1387V27.1499V27.1611V27.1724V27.1838V27.1952V27.2066V27.2181V27.2297V27.2413V27.2529V27.2646V27.2763V27.2881V27.3V27.3119V27.3238V27.3358V27.3478V27.3599V27.372V27.3842V27.3964V27.4087V27.421V27.4334V27.4458V27.4582V27.4707V27.4832V27.4958V27.5085V27.5211V27.5339V27.5466V27.5594V27.5723V27.5852V27.5981V27.6111V27.6241V27.6372V27.6503V27.6634V27.6766V27.6899V27.7031V27.7165V27.7298V27.7432V27.7567V27.7701V27.7837V27.7972V27.8108V27.8245V27.8382V27.8519V27.8656V27.8794V27.8933V27.9071V27.9211V27.935V27.949V27.963V27.9771V27.9912V28.0053V28.0195V28.0337V28.048V28.0623V28.0766V28.0909V28.1053V28.1197V28.1342V28.1487V28.1632V28.1778V28.1924V28.207V28.2217V28.2364V28.2512V28.2659V28.2807V28.2956V28.3104V28.3253V28.3403V28.3552V28.3702V28.3853V28.4003V28.4154V28.4305V28.4457V28.4609V28.4761V28.4913V28.5066V28.5219V28.5372V28.5526V28.568V28.5834V28.5989V28.6143V28.6299V28.6454V28.6609V28.6765V28.6922V28.7078V28.7235V28.7392V28.7549V28.7707V28.7864V28.8022V28.8181V28.8339V28.8498V28.8657V28.8816V28.8976V28.9136V28.9296V28.9456V28.9617V28.9777V28.9938V29.01V29.0261V29.0423V29.0585V29.0747V29.0909V29.1072V29.1235V29.1398V29.1561V29.1724V29.1888V29.2052V29.2216V29.238V29.2545V29.2709V29.2874V29.3039V29.3205V29.337V29.3536V29.3701V29.3867V29.4034V29.42V29.4367V29.4533V29.47V29.4867V29.5035V29.5202V29.537V29.5537V29.5705V29.5873V29.6042V29.621V29.6379V29.6547V29.6716V29.6885V29.7054V29.7224V29.7393V29.7563V29.7732V29.7902V29.8072V29.8242V29.8412V29.8583V29.8753V29.8924V29.9095V29.9265V29.9436V29.9608V29.9779V29.995V30.0121V30.0293V30.0465V30.0636V30.0808V30.098V30.1152V30.1324V30.1496V30.1669V30.1841V30.2013V30.2186V30.2359V30.2531V30.2704V30.2877V30.305V30.3223V30.3396V30.3569V30.3742V30.3916V30.4089V30.4262V30.4436V30.4609V30.4783V30.4956V30.513V30.5304V30.5478V30.5651V30.5825V30.5999V30.6173V30.6347V30.6521V30.6695V30.6869V30.7043V30.7217V30.7391V30.7565V30.7739V30.7913V30.8087V30.8262V30.8436V30.861V30.8784V30.8958V30.9132V30.9307V30.9481V30.9655V30.9829V31.0003V31.0177V31.0351V31.0526V31.07V31.0874V31.1048V31.1222V31.1396V31.157V31.1744V31.1918V31.2091V31.2265V31.2439V31.2613V31.2786V31.296V31.3134V31.3307V31.3481V31.3654V31.3828V31.4001V31.4174V31.4347V31.4521V31.4694V31.4867V31.504V31.5212V31.5385V31.5558V31.5731V31.5903V31.6076V31.6248V31.642V31.6593V31.6765V31.6937V31.7109V31.728V31.7452V31.7624V31.7795V31.7967V31.8138V31.8309V31.848V31.8651V31.8822V31.8993V31.9164V31.9334V31.9505V31.9675V31.9845V32.0015V32.0185V32.0354V32.0524V32.0694V32.0863V32.1032V32.1201V32.137V32.1539V32.1707V32.1876V32.2044V32.2212V32.238V32.2548V32.2715V32.2883V32.305V32.3217V32.3384V32.3551V32.3717V32.3884V32.405V32.4216V32.4382V32.4548V32.4713V32.4878V32.5043V32.5208V32.5373V32.5538V32.5702V32.5866V32.603V32.6194V32.6357V32.652V32.6683V32.6846V32.7009V32.7171V32.7333V32.7495V32.7657V32.7819V32.798V32.8141V32.8302V32.8462V32.8622V32.8783V32.8942V32.9102V32.9261V32.942V32.9579V32.9738V32.9896V33.0054V33.0212V33.037V33.0527V33.0684V33.0841V33.0997V33.1153V33.1309V33.1465V33.162V33.1775V33.193V33.2085V33.2239V33.2393V33.2547V33.27V33.2853V33.3006V33.3158V33.3311V33.3462V33.3614V33.3765V33.3916V33.4067V33.4217V33.4367V33.4517V33.4666V33.4815V33.4964V33.5112V33.5261V33.5408V33.5556V33.5703V33.5849V33.5996V33.6142V33.6288V33.6433V33.6578V33.6723V33.6867V33.7011V33.7155V33.7298V33.7441V33.7583V33.7726V33.7867V33.8009V33.815V33.8291V33.8431V33.8571V33.871V33.885V33.8988V33.9127V33.9265V33.9402V33.954V33.9677V33.9813V33.9949V34.0085V34.022V34.0355V34.0489V34.0623V34.0757V34.089V34.1023V34.1155V34.1287V34.1419V34.155V34.1681V34.1811V34.1941V34.207V34.2199V34.2328V34.2456V34.2584V34.2711V34.2838V34.2964V34.309V34.3216V34.3341V34.3465V34.3589V34.3713V34.3836V34.3959V34.4081V34.4203V34.4324V34.4445V34.4565V34.4685V34.4805V34.4924V34.5042V34.516V34.5278V34.5395V34.5511V34.5627V34.5743V34.5858V34.5973V34.6087V34.62V34.6313V34.6426V34.6538V34.6649V34.676V34.6871V34.6981V34.709V34.7199V34.7308C7.68419 35.5592 7.01261 36.2308 6.18419 36.2308C5.35576 36.2308 4.68419 35.5592 4.68419 34.7308V34.7199V34.709V34.6981V34.6871V34.676V34.6649V34.6538V34.6426V34.6313V34.62V34.6087V34.5973V34.5858V34.5743V34.5627V34.5511V34.5395V34.5278V34.516V34.5042V34.4924V34.4805V34.4685V34.4565V34.4445V34.4324V34.4203V34.4081V34.3959V34.3836V34.3713V34.3589V34.3465V34.3341V34.3216V34.309V34.2964V34.2838V34.2711V34.2584V34.2456V34.2328V34.2199V34.207V34.1941V34.1811V34.1681V34.155V34.1419V34.1287V34.1155V34.1023V34.089V34.0757V34.0623V34.0489V34.0355V34.022V34.0085V33.9949V33.9813V33.9677V33.954V33.9402V33.9265V33.9127V33.8988V33.885V33.871V33.8571V33.8431V33.8291V33.815V33.8009V33.7867V33.7726V33.7583V33.7441V33.7298V33.7155V33.7011V33.6867V33.6723V33.6578V33.6433V33.6288V33.6142V33.5996V33.5849V33.5703V33.5556V33.5408V33.5261V33.5112V33.4964V33.4815V33.4666V33.4517V33.4367V33.4217V33.4067V33.3916V33.3765V33.3614V33.3462V33.3311V33.3158V33.3006V33.2853V33.27V33.2547V33.2393V33.2239V33.2085V33.193V33.1775V33.162V33.1465V33.1309V33.1153V33.0997V33.0841V33.0684V33.0527V33.037V33.0212V33.0054V32.9896V32.9738V32.9579V32.942V32.9261V32.9102V32.8942V32.8783V32.8622V32.8462V32.8302V32.8141V32.798V32.7819V32.7657V32.7495V32.7333V32.7171V32.7009V32.6846V32.6683V32.652V32.6357V32.6194V32.603V32.5866V32.5702V32.5538V32.5373V32.5208V32.5043V32.4878V32.4713V32.4548V32.4382V32.4216V32.405V32.3884V32.3717V32.3551V32.3384V32.3217V32.305V32.2883V32.2715V32.2548V32.238V32.2212V32.2044V32.1876V32.1707V32.1539V32.137V32.1201V32.1032V32.0863V32.0694V32.0524V32.0354V32.0185V32.0015V31.9845V31.9675V31.9505V31.9334V31.9164V31.8993V31.8822V31.8651V31.848V31.8309V31.8138V31.7967V31.7795V31.7624V31.7452V31.728V31.7109V31.6937V31.6765V31.6593V31.642V31.6248V31.6076V31.5903V31.5731V31.5558V31.5385V31.5212V31.504V31.4867V31.4694V31.4521V31.4347V31.4174V31.4001V31.3828V31.3654V31.3481V31.3307V31.3134V31.296V31.2786V31.2613V31.2439V31.2265V31.2091V31.1918V31.1744V31.157V31.1396V31.1222V31.1048V31.0874V31.07V31.0526V31.0351V31.0177V31.0003V30.9829V30.9655V30.9481V30.9307V30.9132V30.8958V30.8784V30.861V30.8436V30.8262V30.8087V30.7913V30.7739V30.7565V30.7391V30.7217V30.7043V30.6869V30.6695V30.6521V30.6347V30.6173V30.5999V30.5825V30.5651V30.5478V30.5304V30.513V30.4956V30.4783V30.4609V30.4436V30.4262V30.4089V30.3916V30.3742V30.3569V30.3396V30.3223V30.305V30.2877V30.2704V30.2531V30.2359V30.2186V30.2013V30.1841V30.1669V30.1496V30.1324V30.1152V30.098V30.0808V30.0636V30.0465V30.0293V30.0121V29.995V29.9779V29.9608V29.9436V29.9265V29.9095V29.8924V29.8753V29.8583V29.8412V29.8242V29.8072V29.7902V29.7732V29.7563V29.7393V29.7224V29.7054V29.6885V29.6716V29.6547V29.6379V29.621V29.6042V29.5873V29.5705V29.5537V29.537V29.5202V29.5035V29.4867V29.47V29.4533V29.4367V29.42V29.4034V29.3867V29.3701V29.3536V29.337V29.3205V29.3039V29.2874V29.2709V29.2545V29.238V29.2216V29.2052V29.1888V29.1724V29.1561V29.1398V29.1235V29.1072V29.0909V29.0747V29.0585V29.0423V29.0261V29.01V28.9938V28.9777V28.9617V28.9456V28.9296V28.9136V28.8976V28.8816V28.8657V28.8498V28.8339V28.8181V28.8022V28.7864V28.7707V28.7549V28.7392V28.7235V28.7078V28.6922V28.6765V28.6609V28.6454V28.6299V28.6143V28.5989V28.5834V28.568V28.5526V28.5372V28.5219V28.5066V28.4913V28.4761V28.4609V28.4457V28.4305V28.4154V28.4003V28.3853V28.3702V28.3552V28.3403V28.3253V28.3104V28.2956V28.2807V28.2659V28.2512V28.2364V28.2217V28.207V28.1924V28.1778V28.1632V28.1487V28.1342V28.1197V28.1053V28.0909V28.0766V28.0623V28.048V28.0337V28.0195V28.0053V27.9912V27.9771V27.963V27.949V27.935V27.9211V27.9071V27.8933V27.8794V27.8656V27.8519V27.8382V27.8245V27.8108V27.7972V27.7837V27.7701V27.7567V27.7432V27.7298V27.7165V27.7031V27.6899V27.6766V27.6634V27.6503V27.6372V27.6241V27.6111V27.5981V27.5852V27.5723V27.5594V27.5466V27.5339V27.5211V27.5085V27.4958V27.4832V27.4707V27.4582V27.4458V27.4334V27.421V27.4087V27.3964V27.3842V27.372V27.3599V27.3478V27.3358V27.3238V27.3119V27.3V27.2881V27.2763V27.2646V27.2529V27.2413V27.2297V27.2181V27.2066V27.1952V27.1838V27.1724V27.1611V27.1499V27.1387V27.1275V27.1164V27.1054V27.0944V27.0834V27.0726V27.0617V27.0509V27.0402V27.0295V27.0189V27.0083V26.9978V26.9873V26.9769C4.68419 26.8067 4.56722 26.3714 4.13465 25.4522C3.95044 25.0607 3.7363 24.6343 3.49492 24.1537L3.44175 24.0478C3.18201 23.5305 2.89744 22.9615 2.61157 22.3541C1.47094 19.9302 0.253418 16.7834 0.253418 13.1308C0.253418 9.28082 2.1804 5.98258 4.86185 3.68419C7.53363 1.39409 11.0583 0 14.4919 0C21.1041 0 29.0548 4.76341 29.2794 14.3785L32.508 19.9132C33.1475 21.0097 32.864 22.4113 31.8485 23.1729L28.7303 25.5115V29.3C28.7303 30.6807 27.6111 31.8 26.2303 31.8H22.0842V34.7304C22.0842 35.5588 21.4126 36.2304 20.5842 36.2304C19.7558 36.2304 19.0842 35.5588 19.0842 34.7304V31.8H17.815C16.9865 31.8 16.315 31.1284 16.315 30.3C16.315 29.4716 16.9865 28.8 17.815 28.8H20.5483C20.5602 28.7997 20.5722 28.7996 20.5842 28.7996C20.5962 28.7996 20.6082 28.7997 20.6201 28.8H25.7303V25.2615C25.7303 24.4746 26.1008 23.7337 26.7303 23.2615L29.6922 21.0401L26.6247 15.7816C26.3975 15.3921 26.2891 14.961 26.2821 14.5445C26.1529 6.87793 19.912 3 14.4919 3C11.8332 3 8.98859 4.09822 6.81422 5.96196ZM37.4729 1.09269C37.7898 0.912076 38.18 0.91841 38.491 1.10922L42.5473 3.59833C42.8437 3.78019 43.0243 4.10294 43.0243 4.45065V9.42889C43.0243 9.7766 42.8437 10.0994 42.5473 10.2812L38.491 12.7703C38.18 12.9611 37.7898 12.9675 37.4729 12.7869L33.1045 10.2977C32.7923 10.1199 32.5996 9.78818 32.5996 9.42889V4.45065C32.5996 4.09136 32.7923 3.75968 33.1045 3.5818L37.4729 1.09269ZM34.5996 6.17141L36.9679 7.52091V10.1973L34.5996 8.84775V6.17141ZM38.9679 10.1311L41.0243 8.86926V6.23756L38.9679 7.4994V10.1311ZM37.9491 5.77808L40.1123 4.45065L37.9491 3.12323L35.6195 4.45065L37.9491 5.77808ZM48.1952 11.0491C48.5121 10.8685 48.9023 10.8748 49.2133 11.0656L53.2696 13.5548C53.566 13.7366 53.7466 14.0594 53.7466 14.4071V19.3853C53.7466 19.733 53.566 20.0558 53.2696 20.2376L49.2133 22.7268C48.9023 22.9176 48.5121 22.9239 48.1952 22.7433L43.8268 20.2542C43.5146 20.0763 43.3219 19.7446 43.3219 19.3853V14.4071C43.3219 14.0478 43.5146 13.7161 43.8268 13.5382L48.1952 11.0491ZM45.3219 16.1278L47.6903 17.4773V20.1537L45.3219 18.8042V16.1278ZM49.6903 20.0875L51.7466 18.8257V16.194L49.6903 17.4558V20.0875ZM48.6714 15.7345L50.8346 14.4071L48.6714 13.0797L46.3418 14.4071L48.6714 15.7345ZM42.3203 22.5541C42.0093 22.3633 41.6192 22.3569 41.3022 22.5375L36.9338 25.0267C36.6217 25.2045 36.4289 25.5362 36.4289 25.8955V30.8738C36.4289 31.233 36.6217 31.5647 36.9338 31.7426L41.3022 34.2317C41.6192 34.4123 42.0093 34.406 42.3203 34.2152L46.3766 31.7261C46.673 31.5442 46.8536 31.2215 46.8536 30.8738V25.8955C46.8536 25.5478 46.673 25.2251 46.3766 25.0432L42.3203 22.5541ZM40.7973 28.9658L38.4289 27.6163V30.2926L40.7973 31.6421V28.9658ZM44.8536 30.3141L42.7973 31.576V28.9443L44.8536 27.6824V30.3141ZM43.9416 25.8955L41.7784 27.2229L39.4488 25.8955L41.7784 24.5681L43.9416 25.8955Z" fill="url(#paint0_linear_1228_5580)"/>
<defs>
<linearGradient id="paint0_linear_1228_5580" x1="45.7124" y1="27.9965" x2="8.63354" y2="29.6428" gradientUnits="userSpaceOnUse">
<stop stop-color="#2E90FA"/>
<stop offset="1" stop-color="#3271DD"/>
</linearGradient>
</defs>
</svg>
