<svg width="40" height="36" viewBox="0 0 40 36" fill="none" xmlns="http://www.w3.org/2000/svg">
<path fill-rule="evenodd" clip-rule="evenodd" d="M12.3886 5.9281C10.2486 7.76239 8.86939 10.2499 8.86939 13.0122C8.86939 15.9719 9.85597 18.6108 10.9194 20.8707C11.1846 21.4341 11.451 21.9672 11.7079 22.4788L11.765 22.5925L11.7651 22.5926C11.9988 23.0579 12.2276 23.5135 12.427 23.9372C12.821 24.7744 13.255 25.7855 13.255 26.7173V26.7276V26.738V26.7484V26.7588V26.7694V26.7799V26.7905V26.8012V26.8119V26.8227V26.8336V26.8444V26.8554V26.8664V26.8774V26.8885V26.8996V26.9108V26.922V26.9333V26.9446V26.956V26.9675V26.9789V26.9905V27.002V27.0137V27.0253V27.0371V27.0488V27.0606V27.0725V27.0844V27.0964V27.1084V27.1204V27.1325V27.1447V27.1568V27.1691V27.1814V27.1937V27.2061V27.2185V27.2309V27.2434V27.256V27.2686V27.2812V27.2939V27.3066V27.3193V27.3322V27.345V27.3579V27.3708V27.3838V27.3968V27.4099V27.423V27.4361V27.4493V27.4625V27.4758V27.4891V27.5024V27.5158V27.5292V27.5427V27.5562V27.5697V27.5833V27.5969V27.6106V27.6243V27.638V27.6518V27.6656V27.6795V27.6933V27.7073V27.7212V27.7352V27.7493V27.7633V27.7774V27.7916V27.8057V27.82V27.8342V27.8485V27.8628V27.8771V27.8915V27.9059V27.9204V27.9349V27.9494V27.964V27.9785V27.9932V28.0078V28.0225V28.0372V28.052V28.0667V28.0816V28.0964V28.1113V28.1262V28.1411V28.1561V28.1711V28.1861V28.2012V28.2163V28.2314V28.2465V28.2617V28.2769V28.2922V28.3074V28.3227V28.338V28.3534V28.3688V28.3842V28.3996V28.4151V28.4305V28.446V28.4616V28.4772V28.4927V28.5084V28.524V28.5397V28.5554V28.5711V28.5868V28.6026V28.6184V28.6342V28.6501V28.6659V28.6818V28.6977V28.7137V28.7296V28.7456V28.7616V28.7776V28.7937V28.8097V28.8258V28.842V28.8581V28.8742V28.8904V28.9066V28.9228V28.9391V28.9553V28.9716V28.9879V29.0042V29.0206V29.0369V29.0533V29.0697V29.0861V29.1026V29.119V29.1355V29.152V29.1685V29.185V29.2015V29.2181V29.2347V29.2512V29.2679V29.2845V29.3011V29.3178V29.3344V29.3511V29.3678V29.3845V29.4013V29.418V29.4348V29.4515V29.4683V29.4851V29.5019V29.5187V29.5356V29.5524V29.5693V29.5862V29.6031V29.62V29.6369V29.6538V29.6707V29.6877V29.7046V29.7216V29.7386V29.7555V29.7725V29.7896V29.8066V29.8236V29.8406V29.8577V29.8747V29.8918V29.9089V29.9259V29.943V29.9601V29.9772V29.9943V30.0115V30.0286V30.0457V30.0628V30.08V30.0971V30.1143V30.1315V30.1486V30.1658V30.183V30.2002V30.2173V30.2345V30.2517V30.2689V30.2861V30.3033V30.3206V30.3378V30.355V30.3722V30.3894V30.4067V30.4239V30.4411V30.4584V30.4756V30.4928V30.5101V30.5273V30.5445V30.5618V30.579V30.5963V30.6135V30.6307V30.648V30.6652V30.6825V30.6997V30.7169V30.7342V30.7514V30.7686V30.7859V30.8031V30.8203V30.8375V30.8547V30.872V30.8892V30.9064V30.9236V30.9408V30.958V30.9752V30.9924V31.0096V31.0267V31.0439V31.0611V31.0782V31.0954V31.1125V31.1297V31.1468V31.164V31.1811V31.1982V31.2153V31.2324V31.2495V31.2666V31.2837V31.3008V31.3178V31.3349V31.3519V31.369V31.386V31.403V31.42V31.437V31.454V31.471V31.4879V31.5049V31.5218V31.5388V31.5557V31.5726V31.5895V31.6064V31.6233V31.6401V31.657V31.6738V31.6907V31.7075V31.7243V31.7411V31.7578V31.7746V31.7913V31.8081V31.8248V31.8415V31.8582V31.8748V31.8915V31.9081V31.9247V31.9414V31.9579V31.9745V31.9911V32.0076V32.0241V32.0406V32.0571V32.0736V32.0901V32.1065V32.1229V32.1393V32.1557V32.172V32.1884V32.2047V32.221V32.2373V32.2536V32.2698V32.286V32.3022V32.3184V32.3346V32.3507V32.3668V32.3829V32.399V32.415V32.4311V32.4471V32.4631V32.479V32.495V32.5109V32.5268V32.5426V32.5585V32.5743V32.5901V32.6059V32.6216V32.6373V32.653V32.6687V32.6844V32.7V32.7156V32.7311V32.7467V32.7622V32.7777V32.7932V32.8086V32.824V32.8394V32.8547V32.8701V32.8853V32.9006V32.9159V32.9311V32.9462V32.9614V32.9765V32.9916V33.0067V33.0217V33.0367V33.0517V33.0666V33.0815V33.0964V33.1113V33.1261V33.1409V33.1556V33.1703V33.185V33.1997V33.2143V33.2289V33.2435V33.258V33.2725V33.2869V33.3014V33.3157V33.3301V33.3444V33.3587V33.373V33.3872V33.4013V33.4155V33.4296V33.4437V33.4577V33.4717V33.4857V33.4996V33.5135V33.5273V33.5412V33.5549V33.5687V33.5824V33.596V33.6097V33.6232V33.6368V33.6503V33.6638V33.6772V33.6906V33.7039V33.7172V33.7305V33.7437V33.7569V33.7701V33.7832V33.7962V33.8093V33.8222V33.8352V33.8481V33.8609V33.8737V33.8865V33.8992V33.9119V33.9245V33.9371V33.9497V33.9622V33.9747V33.9871V33.9995V34.0118V34.0241V34.0363V34.0485V34.0606V34.0728V34.0848V34.0968V34.1088V34.1207V34.1326V34.1444V34.1562V34.1679V34.1796V34.1912V34.2028V34.2143V34.2258V34.2372V34.2486V34.26V34.2713V34.2825V34.2937V34.3048V34.3159V34.327V34.3379V34.3489V34.3598V34.3706V34.3814V34.3921C13.255 35.2206 12.5834 35.8921 11.755 35.8921C10.9266 35.8921 10.255 35.2206 10.255 34.3921V34.3814V34.3706V34.3598V34.3489V34.3379V34.327V34.3159V34.3048V34.2937V34.2825V34.2713V34.26V34.2486V34.2372V34.2258V34.2143V34.2028V34.1912V34.1796V34.1679V34.1562V34.1444V34.1326V34.1207V34.1088V34.0968V34.0848V34.0728V34.0606V34.0485V34.0363V34.0241V34.0118V33.9995V33.9871V33.9747V33.9622V33.9497V33.9371V33.9245V33.9119V33.8992V33.8865V33.8737V33.8609V33.8481V33.8352V33.8222V33.8093V33.7962V33.7832V33.7701V33.7569V33.7437V33.7305V33.7172V33.7039V33.6906V33.6772V33.6638V33.6503V33.6368V33.6232V33.6097V33.596V33.5824V33.5687V33.5549V33.5412V33.5273V33.5135V33.4996V33.4857V33.4717V33.4577V33.4437V33.4296V33.4155V33.4013V33.3872V33.373V33.3587V33.3444V33.3301V33.3157V33.3014V33.2869V33.2725V33.258V33.2435V33.2289V33.2143V33.1997V33.185V33.1703V33.1556V33.1409V33.1261V33.1113V33.0964V33.0815V33.0666V33.0517V33.0367V33.0217V33.0067V32.9916V32.9765V32.9614V32.9462V32.9311V32.9159V32.9006V32.8853V32.8701V32.8547V32.8394V32.824V32.8086V32.7932V32.7777V32.7622V32.7467V32.7311V32.7156V32.7V32.6844V32.6687V32.653V32.6373V32.6216V32.6059V32.5901V32.5743V32.5585V32.5426V32.5268V32.5109V32.495V32.479V32.4631V32.4471V32.4311V32.415V32.399V32.3829V32.3668V32.3507V32.3346V32.3184V32.3022V32.286V32.2698V32.2536V32.2373V32.221V32.2047V32.1884V32.172V32.1557V32.1393V32.1229V32.1065V32.0901V32.0736V32.0571V32.0406V32.0241V32.0076V31.9911V31.9745V31.9579V31.9414V31.9247V31.9081V31.8915V31.8748V31.8582V31.8415V31.8248V31.8081V31.7913V31.7746V31.7578V31.7411V31.7243V31.7075V31.6907V31.6738V31.657V31.6401V31.6233V31.6064V31.5895V31.5726V31.5557V31.5388V31.5218V31.5049V31.4879V31.471V31.454V31.437V31.42V31.403V31.386V31.369V31.3519V31.3349V31.3178V31.3008V31.2837V31.2666V31.2495V31.2324V31.2153V31.1982V31.1811V31.164V31.1468V31.1297V31.1125V31.0954V31.0782V31.0611V31.0439V31.0267V31.0096V30.9924V30.9752V30.958V30.9408V30.9236V30.9064V30.8892V30.872V30.8547V30.8375V30.8203V30.8031V30.7859V30.7686V30.7514V30.7342V30.7169V30.6997V30.6825V30.6652V30.648V30.6307V30.6135V30.5963V30.579V30.5618V30.5445V30.5273V30.5101V30.4928V30.4756V30.4584V30.4411V30.4239V30.4067V30.3894V30.3722V30.355V30.3378V30.3206V30.3033V30.2861V30.2689V30.2517V30.2345V30.2173V30.2002V30.183V30.1658V30.1486V30.1315V30.1143V30.0971V30.08V30.0628V30.0457V30.0286V30.0115V29.9943V29.9772V29.9601V29.943V29.9259V29.9089V29.8918V29.8747V29.8577V29.8406V29.8236V29.8066V29.7896V29.7725V29.7555V29.7386V29.7216V29.7046V29.6877V29.6707V29.6538V29.6369V29.62V29.6031V29.5862V29.5693V29.5524V29.5356V29.5187V29.5019V29.4851V29.4683V29.4515V29.4348V29.418V29.4013V29.3845V29.3678V29.3511V29.3344V29.3178V29.3011V29.2845V29.2679V29.2512V29.2347V29.2181V29.2015V29.185V29.1685V29.152V29.1355V29.119V29.1026V29.0861V29.0697V29.0533V29.0369V29.0206V29.0042V28.9879V28.9716V28.9553V28.9391V28.9228V28.9066V28.8904V28.8742V28.8581V28.842V28.8258V28.8097V28.7937V28.7776V28.7616V28.7456V28.7296V28.7137V28.6977V28.6818V28.6659V28.6501V28.6342V28.6184V28.6026V28.5868V28.5711V28.5554V28.5397V28.524V28.5084V28.4927V28.4772V28.4616V28.446V28.4305V28.4151V28.3996V28.3842V28.3688V28.3534V28.338V28.3227V28.3074V28.2922V28.2769V28.2617V28.2465V28.2314V28.2163V28.2012V28.1861V28.1711V28.1561V28.1411V28.1262V28.1113V28.0964V28.0816V28.0667V28.052V28.0372V28.0225V28.0078V27.9932V27.9785V27.964V27.9494V27.9349V27.9204V27.9059V27.8915V27.8771V27.8628V27.8485V27.8342V27.82V27.8057V27.7916V27.7774V27.7633V27.7493V27.7352V27.7212V27.7073V27.6933V27.6795V27.6656V27.6518V27.638V27.6243V27.6106V27.5969V27.5833V27.5697V27.5562V27.5427V27.5292V27.5158V27.5024V27.4891V27.4758V27.4625V27.4493V27.4361V27.423V27.4099V27.3968V27.3838V27.3708V27.3579V27.345V27.3322V27.3193V27.3066V27.2939V27.2812V27.2686V27.256V27.2434V27.2309V27.2185V27.2061V27.1937V27.1814V27.1691V27.1568V27.1447V27.1325V27.1204V27.1084V27.0964V27.0844V27.0725V27.0606V27.0488V27.0371V27.0253V27.0137V27.002V26.9905V26.9789V26.9675V26.956V26.9446V26.9333V26.922V26.9108V26.8996V26.8885V26.8774V26.8664V26.8554V26.8444V26.8336V26.8227V26.8119V26.8012V26.7905V26.7799V26.7694V26.7588V26.7484V26.738V26.7276V26.7173C10.255 26.5527 10.1409 26.1248 9.71253 25.2146C9.5303 24.8273 9.31843 24.4055 9.07951 23.9297L9.07947 23.9297L9.07944 23.9296L9.02686 23.8249C8.83926 23.4513 8.63854 23.0503 8.43376 22.6272C6.53336 22.5563 4.81553 22.2735 3.45439 21.719C2.10835 21.1707 0.878702 20.2519 0.438641 18.7839C-0.0014191 17.3159 0.520071 15.8722 1.3425 14.6738C2.17467 13.4612 3.45472 12.2794 5.00404 11.1742C5.37653 10.9085 5.76869 10.6444 6.17925 10.3826C6.82246 7.69415 8.41276 5.38471 10.4362 3.65033C13.0833 1.38139 16.5755 0 19.978 0C23.0993 0 26.5217 1.07151 29.2738 3.22347C30.0721 3.18953 30.837 3.186 31.5627 3.21296C33.4645 3.28361 35.1836 3.56642 36.5456 4.12127C37.8916 4.66963 39.1213 5.58836 39.5613 7.0564C40.0014 8.52443 39.4799 9.96808 38.6575 11.1665C37.8253 12.379 36.5453 13.5609 34.9959 14.666C34.9242 14.7172 34.8517 14.7683 34.7786 14.8194L37.0031 21.2438C37.3845 22.3453 36.954 23.5643 35.9655 24.182L34.0867 25.356V29.0065C34.0867 30.3872 32.9674 31.5065 31.5867 31.5065H27.5085V34.392C27.5085 35.2204 26.837 35.892 26.0085 35.892C25.1801 35.892 24.5085 35.2204 24.5085 34.392V31.5065H23.2673C22.4388 31.5065 21.7673 30.8349 21.7673 30.0065C21.7673 29.1781 22.4388 28.5065 23.2673 28.5065H25.99L26.0085 28.5064L26.0271 28.5065H31.0867V25.0788C31.0867 24.2167 31.5308 23.4155 32.2619 22.9587L34.0379 21.8489L31.7725 15.3066C31.6796 15.0383 31.6368 14.7643 31.6341 14.5024C31.5964 10.9424 30.231 8.20267 28.2392 6.29169C28.1981 6.29492 28.157 6.29823 28.1158 6.30163L28.2166 6.27015C25.9359 4.09431 22.8412 3 19.978 3C17.3504 3 14.5382 4.08552 12.3886 5.9281ZM32.1395 6.24788C33.153 7.71017 33.9167 9.43013 34.3182 11.4088C35.1585 10.7142 35.7799 10.0578 36.1839 9.46893C36.7529 8.6399 36.7588 8.155 36.6877 7.91781C36.6166 7.68063 36.3449 7.27892 35.4137 6.89957C34.6249 6.57822 33.525 6.34651 32.1395 6.24788ZM5.91541 14.2419C4.95584 15.0066 4.25672 15.7292 3.81603 16.3714C3.24708 17.2004 3.24121 17.6853 3.31231 17.9225C3.38341 18.1597 3.65505 18.5614 4.58623 18.9407C5.22463 19.2008 6.0668 19.4022 7.09923 19.5218C6.52594 17.9465 6.05936 16.1744 5.91541 14.2419ZM18.2814 21.5748C19.5892 21.2855 20.928 20.9379 22.2818 20.5321C24.2651 19.9376 26.1531 19.2563 27.9029 18.5157L18.2814 21.5748Z" fill="url(#paint0_linear_2204_6370)"/>
<path d="M22.8509 14.7323C22.8509 15.4243 22.576 16.088 22.0866 16.5774C21.5973 17.0667 20.9336 17.3416 20.2416 17.3416C19.5495 17.3416 18.8858 17.0667 18.3965 16.5774C17.9071 16.088 17.6322 15.4243 17.6322 14.7323C17.6322 14.0402 17.9071 13.3765 18.3965 12.8872C18.8858 12.3978 19.5495 12.1229 20.2416 12.1229C20.9336 12.1229 21.5973 12.3978 22.0866 12.8872C22.576 13.3765 22.8509 14.0402 22.8509 14.7323V14.7323Z" stroke="url(#paint1_linear_2204_6370)" stroke-width="2" stroke-linecap="round" stroke-linejoin="round"/>
<path d="M18.8002 7.72177C18.8784 7.25035 19.2872 6.90417 19.7656 6.90417H20.7163C21.1947 6.90417 21.6035 7.25035 21.6818 7.72177L21.8114 8.49936C21.8722 8.86815 22.1454 9.16387 22.4898 9.30826C22.836 9.4509 23.2335 9.43177 23.5379 9.21432L24.1789 8.75594C24.3674 8.62118 24.5977 8.5577 24.8286 8.57681C25.0596 8.59592 25.2763 8.69639 25.4401 8.86032L26.1124 9.53353C26.4517 9.87188 26.4951 10.4051 26.2168 10.7947L25.7584 11.4357C25.541 11.7402 25.5219 12.1368 25.6654 12.483C25.8089 12.8283 26.1046 13.1005 26.4743 13.1614L27.251 13.2919C27.7233 13.3701 28.0686 13.7789 28.0686 14.2565V15.208C28.0686 15.6864 27.7233 16.0952 27.251 16.1735L26.4743 16.3031C26.1046 16.3639 25.8089 16.6362 25.6654 16.9815C25.5219 17.3277 25.541 17.7243 25.7584 18.0287L26.2168 18.6706C26.4951 19.0594 26.4508 19.5926 26.1124 19.9318L25.4392 20.6041C25.2755 20.7678 25.059 20.8682 24.8282 20.8873C24.5974 20.9064 24.3674 20.843 24.1789 20.7085L23.537 20.2501C23.2326 20.0327 22.836 20.0136 22.4907 20.1571C22.1454 20.3006 21.8731 20.5963 21.8114 20.9651L21.6818 21.7427C21.6035 22.2141 21.1947 22.5603 20.7163 22.5603H19.7648C19.2864 22.5603 18.8784 22.2141 18.7993 21.7427L18.6706 20.9651C18.6088 20.5963 18.3366 20.3006 17.9913 20.1562C17.6451 20.0136 17.2485 20.0327 16.944 20.2501L16.3021 20.7085C15.9134 20.9868 15.3802 20.9425 15.041 20.6041L14.3686 19.9309C14.2047 19.7671 14.1042 19.5504 14.0851 19.3195C14.066 19.0885 14.1295 18.8583 14.2642 18.6697L14.7226 18.0287C14.9401 17.7243 14.9601 17.3277 14.8166 16.9815C14.673 16.6362 14.3773 16.3639 14.0077 16.3031L13.2301 16.1726C12.7586 16.0943 12.4125 15.6855 12.4125 15.208V14.2565C12.4125 13.7781 12.7586 13.3693 13.2301 13.291L14.0077 13.1614C14.3764 13.1005 14.673 12.8283 14.8166 12.483C14.9601 12.1368 14.9409 11.7402 14.7235 11.4357L14.2651 10.7938C14.1303 10.6053 14.0669 10.3751 14.086 10.1441C14.1051 9.91315 14.2056 9.69647 14.3695 9.53266L15.0418 8.86032C15.2056 8.69639 15.4223 8.59592 15.6533 8.57681C15.8842 8.5577 16.1145 8.62118 16.303 8.75594L16.944 9.21432C17.2485 9.43177 17.646 9.4509 17.9913 9.30739C18.3366 9.16387 18.6088 8.86815 18.6697 8.49936L18.8002 7.72177V7.72177Z" stroke="url(#paint2_linear_2204_6370)" stroke-width="2" stroke-linecap="round" stroke-linejoin="round"/>
<defs>
<linearGradient id="paint0_linear_2204_6370" x1="33.7975" y1="27.7348" x2="6.43358" y2="28.6391" gradientUnits="userSpaceOnUse">
<stop stop-color="#2E90FA"/>
<stop offset="1" stop-color="#3271DD"/>
</linearGradient>
<linearGradient id="paint1_linear_2204_6370" x1="22.0671" y1="16.1556" x2="18.4459" y2="16.2645" gradientUnits="userSpaceOnUse">
<stop stop-color="#2E90FA"/>
<stop offset="1" stop-color="#3271DD"/>
</linearGradient>
<linearGradient id="paint2_linear_2204_6370" x1="25.7172" y1="19.0021" x2="14.8536" y2="19.3288" gradientUnits="userSpaceOnUse">
<stop stop-color="#2E90FA"/>
<stop offset="1" stop-color="#3271DD"/>
</linearGradient>
</defs>
</svg>
