<svg width="34" height="36" viewBox="0 0 34 36" fill="none" xmlns="http://www.w3.org/2000/svg">
<path fill-rule="evenodd" clip-rule="evenodd" d="M11.1098 0.192637C10.6531 -0.0642122 10.0956 -0.0642122 9.63897 0.192637L0.871167 5.12453C0.408931 5.37107 0.0909425 5.85252 0.0765792 6.40951C0.0762337 6.42266 0.0760602 6.43584 0.0760602 6.44905L0.0760717 6.45493V16.3175C0.0748621 16.3817 0.0777832 16.4456 0.0847233 16.5091C0.10686 16.7151 0.170732 16.9087 0.267718 17.0812C0.380251 17.2822 0.540318 17.4595 0.7427 17.5944C0.781197 17.6202 0.820954 17.6442 0.861859 17.6664L9.60881 22.5865C9.83292 22.7198 10.0947 22.7963 10.3744 22.7963C10.654 22.7963 10.9158 22.7198 11.1399 22.5866L15.103 20.3573C14.8703 21.0511 14.7398 21.7949 14.7398 22.579C14.7398 24.7415 15.4606 26.5845 16.1045 27.9529C16.2662 28.2965 16.4266 28.6171 16.5699 28.9025L16.598 28.9583C16.7325 29.2263 16.8469 29.454 16.9446 29.6618C17.099 29.9897 17.1538 30.1551 17.1732 30.2137C17.179 30.2313 17.1817 30.2393 17.1828 30.2391C17.1835 30.239 17.1837 30.2365 17.1837 30.2318V30.2337V30.2396V30.2454V30.2513V30.2572V30.2632V30.2692V30.2752V30.2812V30.2873V30.2934V30.2995V30.3056V30.3118V30.318V30.3242V30.3305V30.3368V30.3431V30.3494V30.3558V30.3622V30.3686V30.3751V30.3816V30.3881V30.3946V30.4012V30.4077V30.4144V30.421V30.4277V30.4343V30.4411V30.4478V30.4546V30.4614V30.4682V30.475V30.4819V30.4888V30.4957V30.5026V30.5096V30.5166V30.5236V30.5306V30.5377V30.5448V30.5519V30.559V30.5662V30.5734V30.5806V30.5878V30.5951V30.6024V30.6097V30.617V30.6243V30.6317V30.6391V30.6465V30.6539V30.6614V30.6689V30.6764V30.6839V30.6915V30.699V30.7066V30.7142V30.7219V30.7295V30.7372V30.7449V30.7526V30.7603V30.7681V30.7759V30.7837V30.7915V30.7993V30.8072V30.8151V30.823V30.8309V30.8388V30.8468V30.8548V30.8628V30.8708V30.8788V30.8869V30.8949V30.903V30.9111V30.9193V30.9274V30.9356V30.9438V30.952V30.9602V30.9684V30.9767V30.9849V30.9932V31.0015V31.0099V31.0182V31.0266V31.0349V31.0433V31.0517V31.0602V31.0686V31.0771V31.0855V31.094V31.1025V31.1111V31.1196V31.1281V31.1367V31.1453V31.1539V31.1625V31.1711V31.1798V31.1884V31.1971V31.2058V31.2145V31.2232V31.232V31.2407V31.2495V31.2582V31.267V31.2758V31.2846V31.2935V31.3023V31.3112V31.32V31.3289V31.3378V31.3467V31.3556V31.3646V31.3735V31.3825V31.3914V31.4004V31.4094V31.4184V31.4274V31.4365V31.4455V31.4545V31.4636V31.4727V31.4818V31.4909V31.5V31.5091V31.5182V31.5273V31.5365V31.5456V31.5548V31.564V31.5732V31.5824V31.5916V31.6008V31.61V31.6193V31.6285V31.6378V31.647V31.6563V31.6656V31.6749V31.6842V31.6935V31.7028V31.7121V31.7214V31.7308V31.7401V31.7495V31.7588V31.7682V31.7776V31.7869V31.7963V31.8057V31.8151V31.8246V31.834V31.8434V31.8528V31.8623V31.8717V31.8811V31.8906V31.9001V31.9095V31.919V31.9285V31.938V31.9475V31.9569V31.9664V31.9759V31.9855V31.995V32.0045V32.014V32.0235V32.0331V32.0426V32.0521V32.0617V32.0712V32.0808V32.0903V32.0999V32.1095V32.119V32.1286V32.1382V32.1477V32.1573V32.1669V32.1765V32.186V32.1956V32.2052V32.2148V32.2244V32.234V32.2436V32.2532V32.2628V32.2724V32.282V32.2916V32.3012V32.3108V32.3204V32.33V32.3396V32.3492V32.3588V32.3684V32.378V32.3876V32.3973V32.4069V32.4165V32.4261V32.4357V32.4453V32.4549V32.4645V32.4741V32.4837V32.4933V32.5029V32.5125V32.5221V32.5317V32.5413V32.5509V32.5604V32.57V32.5796V32.5892V32.5988V32.6084V32.6179V32.6275V32.6371V32.6466V32.6562V32.6657V32.6753V32.6848V32.6944V32.7039V32.7135V32.723V32.7325V32.7421V32.7516V32.7611V32.7706V32.7801V32.7896V32.7991V32.8086V32.8181V32.8276V32.8371V32.8466V32.856V32.8655V32.8749V32.8844V32.8938V32.9033V32.9127V32.9221V32.9315V32.941V32.9504V32.9598V32.9692V32.9785V32.9879V32.9973V33.0066V33.016V33.0253V33.0347V33.044V33.0533V33.0627V33.072V33.0813V33.0905V33.0998V33.1091V33.1184V33.1276V33.1369V33.1461V33.1553V33.1645V33.1738V33.1829V33.1921V33.2013V33.2105V33.2196V33.2288V33.2379V33.2471V33.2562V33.2653V33.2744V33.2835V33.2925V33.3016V33.3107V33.3197V33.3287V33.3377V33.3467V33.3557V33.3647V33.3737V33.3826V33.3916V33.4005V33.4094V33.4184V33.4272V33.4361V33.445V33.4539V33.4627V33.4715V33.4803V33.4891V33.4979V33.5067V33.5155V33.5242V33.533V33.5417V33.5504V33.5591V33.5677V33.5764V33.5851V33.5937V33.6023V33.6109V33.6195V33.6281V33.6366V33.6452V33.6537V33.6622V33.6707V33.6792V33.6876V33.6961V33.7045V33.7129V33.7213V33.7297V33.738V33.7464V33.7547V33.763V33.7713V33.7796V33.7878V33.7961V33.8043V33.8125V33.8207V33.8288V33.837V33.8451V33.8532V33.8613V33.8694V33.8775V33.8855V33.8935V33.9015V33.9095V33.9175V33.9254V33.9333V33.9412V33.9491V33.957V33.9648V33.9726V33.9804V33.9882V33.996V34.0037V34.0114V34.0191V34.0268V34.0345V34.0421V34.0497V34.0573V34.0649V34.0724V34.08V34.0875V34.0949V34.1024V34.1098V34.1173V34.1247V34.132V34.1394V34.1467V34.154V34.1613V34.1685V34.1758V34.183V34.1902V34.1973V34.2045V34.2116V34.2187V34.2257V34.2328V34.2398V34.2468V34.2538V34.2607V34.2676V34.2745V34.2814V34.2883V34.2951V34.3019V34.3086V34.3154V34.3221V34.3288V34.3355V34.3421V34.3487V34.3553V34.3619V34.3684V34.3749V34.3814V34.3878V34.3943V34.4007V34.407V34.4134V34.4197V34.426V34.4323V34.4385V34.4447V34.4509V34.457V34.4632V34.4693V34.4753V34.4814V34.4874V34.4934C17.1837 35.3218 17.8553 35.9934 18.6837 35.9934C19.5122 35.9934 20.1837 35.3218 20.1837 34.4934V34.4874V34.4814V34.4753V34.4693V34.4632V34.457V34.4509V34.4447V34.4385V34.4323V34.426V34.4197V34.4134V34.407V34.4007V34.3943V34.3878V34.3814V34.3749V34.3684V34.3619V34.3553V34.3487V34.3421V34.3355V34.3288V34.3221V34.3154V34.3086V34.3019V34.2951V34.2883V34.2814V34.2745V34.2676V34.2607V34.2538V34.2468V34.2398V34.2328V34.2257V34.2187V34.2116V34.2045V34.1973V34.1902V34.183V34.1758V34.1685V34.1613V34.154V34.1467V34.1394V34.132V34.1247V34.1173V34.1098V34.1024V34.0949V34.0875V34.08V34.0724V34.0649V34.0573V34.0497V34.0421V34.0345V34.0268V34.0191V34.0114V34.0037V33.996V33.9882V33.9804V33.9726V33.9648V33.957V33.9491V33.9412V33.9333V33.9254V33.9175V33.9095V33.9015V33.8935V33.8855V33.8775V33.8694V33.8613V33.8532V33.8451V33.837V33.8288V33.8207V33.8125V33.8043V33.7961V33.7878V33.7796V33.7713V33.763V33.7547V33.7464V33.738V33.7297V33.7213V33.7129V33.7045V33.6961V33.6876V33.6792V33.6707V33.6622V33.6537V33.6452V33.6366V33.6281V33.6195V33.6109V33.6023V33.5937V33.5851V33.5764V33.5677V33.5591V33.5504V33.5417V33.533V33.5242V33.5155V33.5067V33.4979V33.4891V33.4803V33.4715V33.4627V33.4539V33.445V33.4361V33.4272V33.4184V33.4094V33.4005V33.3916V33.3826V33.3737V33.3647V33.3557V33.3467V33.3377V33.3287V33.3197V33.3107V33.3016V33.2925V33.2835V33.2744V33.2653V33.2562V33.2471V33.2379V33.2288V33.2196V33.2105V33.2013V33.1921V33.1829V33.1738V33.1645V33.1553V33.1461V33.1369V33.1276V33.1184V33.1091V33.0998V33.0905V33.0813V33.072V33.0627V33.0533V33.044V33.0347V33.0253V33.016V33.0066V32.9973V32.9879V32.9785V32.9692V32.9598V32.9504V32.941V32.9315V32.9221V32.9127V32.9033V32.8938V32.8844V32.8749V32.8655V32.856V32.8466V32.8371V32.8276V32.8181V32.8086V32.7991V32.7896V32.7801V32.7706V32.7611V32.7516V32.7421V32.7325V32.723V32.7135V32.7039V32.6944V32.6848V32.6753V32.6657V32.6562V32.6466V32.6371V32.6275V32.6179V32.6084V32.5988V32.5892V32.5796V32.57V32.5604V32.5509V32.5413V32.5317V32.5221V32.5125V32.5029V32.4933V32.4837V32.4741V32.4645V32.4549V32.4453V32.4357V32.4261V32.4165V32.4069V32.3973V32.3876V32.378V32.3684V32.3588V32.3492V32.3396V32.33V32.3204V32.3108V32.3012V32.2916V32.282V32.2724V32.2628V32.2532V32.2436V32.234V32.2244V32.2148V32.2052V32.1956V32.186V32.1765V32.1669V32.1573V32.1477V32.1382V32.1286V32.119V32.1095V32.0999V32.0903V32.0808V32.0712V32.0617V32.0521V32.0426V32.0331V32.0235V32.014V32.0045V31.995V31.9855V31.9759V31.9664V31.9569V31.9475V31.938V31.9285V31.919V31.9095V31.9001V31.8906V31.8811V31.8717V31.8623V31.8528V31.8434V31.834V31.8246V31.8151V31.8057V31.7963V31.7869V31.7776V31.7682V31.7588V31.7495V31.7401V31.7308V31.7214V31.7121V31.7028V31.6935V31.6842V31.6749V31.6656V31.6563V31.647V31.6378V31.6285V31.6193V31.61V31.6008V31.5916V31.5824V31.5732V31.564V31.5548V31.5456V31.5365V31.5273V31.5182V31.5091V31.5V31.4909V31.4818V31.4727V31.4636V31.4545V31.4455V31.4365V31.4274V31.4184V31.4094V31.4004V31.3914V31.3825V31.3735V31.3646V31.3556V31.3467V31.3378V31.3289V31.32V31.3112V31.3023V31.2935V31.2846V31.2758V31.267V31.2582V31.2495V31.2407V31.232V31.2232V31.2145V31.2058V31.1971V31.1884V31.1798V31.1711V31.1625V31.1539V31.1453V31.1367V31.1281V31.1196V31.1111V31.1025V31.094V31.0855V31.0771V31.0686V31.0602V31.0517V31.0433V31.0349V31.0266V31.0182V31.0099V31.0015V30.9932V30.9849V30.9767V30.9684V30.9602V30.952V30.9438V30.9356V30.9274V30.9193V30.9111V30.903V30.8949V30.8869V30.8788V30.8708V30.8628V30.8548V30.8468V30.8388V30.8309V30.823V30.8151V30.8072V30.7993V30.7915V30.7837V30.7759V30.7681V30.7603V30.7526V30.7449V30.7372V30.7295V30.7219V30.7142V30.7066V30.699V30.6915V30.6839V30.6764V30.6689V30.6614V30.6539V30.6465V30.6391V30.6317V30.6243V30.617V30.6097V30.6024V30.5951V30.5878V30.5806V30.5734V30.5662V30.559V30.5519V30.5448V30.5377V30.5306V30.5236V30.5166V30.5096V30.5026V30.4957V30.4888V30.4819V30.475V30.4682V30.4614V30.4546V30.4478V30.4411V30.4343V30.4277V30.421V30.4144V30.4077V30.4012V30.3946V30.3881V30.3816V30.3751V30.3686V30.3622V30.3558V30.3494V30.3431V30.3368V30.3305V30.3242V30.318V30.3118V30.3056V30.2995V30.2934V30.2873V30.2812V30.2752V30.2692V30.2632V30.2572V30.2513V30.2454V30.2396V30.2337V30.2279V30.2221V30.2164C20.1837 29.5273 19.871 28.8347 19.6591 28.3844C19.5442 28.1401 19.4128 27.8787 19.2836 27.6213L19.251 27.5564C19.1079 27.2714 18.9628 26.9811 18.819 26.6755C18.2409 25.4471 17.7398 24.0824 17.7398 22.579C17.7398 21.2729 18.3908 20.0596 19.469 19.1354C20.5568 18.203 21.9734 17.6636 23.2662 17.6636C25.9603 17.6636 28.9811 19.5652 29.0947 23.2695C29.1069 23.6696 29.2107 24.0939 29.4387 24.4848L30.7677 26.7631L29.7926 27.4944C29.1631 27.9666 28.7926 28.7075 28.7926 29.4944V30.5494H25.0992C24.2707 30.5494 23.5992 31.221 23.5992 32.0494C23.5992 32.8778 24.2707 33.5494 25.0992 33.5494H25.1265V34.4938C25.1265 35.3222 25.7981 35.9938 26.6265 35.9938C27.4549 35.9938 28.1265 35.3222 28.1265 34.4938V33.5494H29.2926C30.6733 33.5494 31.7926 32.4301 31.7926 31.0494V29.7444L32.924 28.8959C33.9394 28.1343 34.223 26.7326 33.5834 25.6362L32.0896 23.0754C31.8614 17.4351 27.1439 14.6636 23.2662 14.6636C22.3933 14.6636 21.5152 14.8124 20.6727 15.0867V6.44891C20.6727 5.87512 20.3505 5.37657 19.8772 5.1243L11.1098 0.192637ZM11.8744 18.7314L17.6727 15.4698V9.01381L11.8744 12.2754V18.7314ZM8.87437 12.2754L3.07607 9.01382V15.4698L8.87437 18.7314V12.2754ZM10.3744 9.67707L4.63565 6.44905L10.3744 3.22102L16.1131 6.44905L10.3744 9.67707ZM22.0718 5.89899C22.0718 5.07057 22.7434 4.39899 23.5718 4.39899H25.7714C28.4255 4.39899 30.5708 6.54428 30.5708 9.19836V11.3979C30.5708 12.2264 29.8992 12.8979 29.0708 12.8979C28.2423 12.8979 27.5708 12.2264 27.5708 11.3979V9.19836C27.5708 8.20114 26.7686 7.39899 25.7714 7.39899H23.5718C22.7434 7.39899 22.0718 6.72742 22.0718 5.89899ZM6.37545 24.596C6.37545 23.7676 5.70387 23.096 4.87545 23.096C4.04702 23.096 3.37545 23.7676 3.37545 24.596V26.7956C3.37545 29.4497 5.52074 31.5949 8.17481 31.5949H10.3744C11.2028 31.5949 11.8744 30.9234 11.8744 30.0949C11.8744 29.2665 11.2028 28.5949 10.3744 28.5949H8.17481C7.17759 28.5949 6.37545 27.7928 6.37545 26.7956V24.596Z" fill="url(#paint0_linear_1228_5608)"/>
<defs>
<linearGradient id="paint0_linear_1228_5608" x1="28.8405" y1="27.8134" x2="5.35095" y2="28.4777" gradientUnits="userSpaceOnUse">
<stop stop-color="#2E90FA"/>
<stop offset="1" stop-color="#3271DD"/>
</linearGradient>
</defs>
</svg>
