<svg width="72" height="72" viewBox="0 0 72 72" fill="none" xmlns="http://www.w3.org/2000/svg">
<rect width="72" height="72" rx="16" fill="#302C3F"/>
<g clip-path="url(#clip0_1430_5879)">
<path d="M46.1057 50.5654V45.3884C46.1057 44.7027 45.7403 44.0664 45.145 43.7215L40.6618 41.1309C40.0665 40.7861 39.3357 40.7861 38.7404 41.1309L34.2572 43.7215C33.6619 44.0664 33.2965 44.6986 33.2965 45.3884V50.5654C33.2965 51.251 33.6619 51.8874 34.2572 52.2322L38.7404 54.8228C39.3357 55.1677 40.0665 55.1677 40.6618 54.8228L45.145 52.2322C45.7403 51.8874 46.1057 51.2551 46.1057 50.5654Z" stroke="white" stroke-width="1.15" stroke-miterlimit="10"/>
<path d="M43.4741 49.0751V46.8787C43.4741 46.1931 43.1087 45.5567 42.5134 45.2118L40.6125 44.1157C40.0172 43.7708 39.2864 43.7708 38.6911 44.1157L36.7903 45.2118C36.195 45.5567 35.8296 46.189 35.8296 46.8787V49.0751C35.8296 49.7608 36.195 50.3971 36.7903 50.742L38.6911 51.8381C39.2864 52.183 40.0172 52.183 40.6125 51.8381L42.5134 50.742C43.1087 50.3971 43.4741 49.7649 43.4741 49.0751Z" fill="white"/>
<path d="M23.3489 35.9251V30.7481C23.3489 30.0625 22.9835 29.4261 22.3882 29.0812L17.905 26.4907C17.3097 26.1458 16.5789 26.1458 15.9836 26.4907L11.5004 29.0812C10.9051 29.4261 10.5397 30.0583 10.5397 30.7481V35.9251C10.5397 36.6107 10.9051 37.2471 11.5004 37.592L15.9836 40.1825C16.5789 40.5274 17.3097 40.5274 17.905 40.1825L22.3882 37.592C22.9835 37.2471 23.3489 36.6149 23.3489 35.9251V35.9251Z" stroke="white" stroke-width="1.15" stroke-miterlimit="10"/>
<path d="M20.8732 34.5251V32.3287C20.8732 31.6431 20.5078 31.0067 19.9125 30.6619L18.0117 29.5657C17.4164 29.2208 16.6856 29.2208 16.0903 29.5657L14.1894 30.6619C13.5942 31.0067 13.2288 31.639 13.2288 32.3287V34.5251C13.2288 35.2108 13.5942 35.8471 14.1894 36.192L16.0903 37.2882C16.6856 37.633 17.4164 37.633 18.0117 37.2882L19.9125 36.192C20.5078 35.8471 20.8732 35.2149 20.8732 34.5251Z" fill="white"/>
<path d="M38.6788 36.7955V31.6184C38.6788 30.9328 38.3134 30.2965 37.7181 29.9516L33.2349 27.361C32.6396 27.0162 31.9088 27.0162 31.3135 27.361L26.8303 29.9516C26.235 30.2965 25.8696 30.9287 25.8696 31.6184V36.7955C25.8696 37.4811 26.235 38.1175 26.8303 38.4623L31.3135 41.0529C31.9088 41.3978 32.6396 41.3978 33.2349 41.0529L37.7181 38.4623C38.3134 38.1175 38.6788 37.4852 38.6788 36.7955V36.7955Z" stroke="white" stroke-width="1.15" stroke-miterlimit="10"/>
<path d="M36.1416 35.2683V33.0718C36.1416 32.3862 35.7762 31.7499 35.1809 31.405L33.2801 30.3088C32.6848 29.964 31.954 29.964 31.3587 30.3088L29.4578 31.405C28.8625 31.7499 28.4971 32.3821 28.4971 33.0718V35.2683C28.4971 35.9539 28.8625 36.5903 29.4578 36.9351L31.3587 38.0313C31.954 38.3762 32.6848 38.3762 33.2801 38.0313L35.1809 36.9351C35.7762 36.5903 36.1416 35.958 36.1416 35.2683Z" fill="white"/>
<path d="M54.0048 37.6413V32.4642C54.0048 31.7786 53.6394 31.1422 53.0441 30.7974L48.5608 28.2068C47.9655 27.8619 47.2348 27.8619 46.6395 28.2068L42.1562 30.7974C41.5609 31.1422 41.1956 31.7745 41.1956 32.4642V37.6413C41.1956 38.3269 41.5609 38.9632 42.1562 39.3081L46.6395 41.8987C47.2348 42.2435 47.9655 42.2435 48.5608 41.8987L53.0441 39.3081C53.6394 38.9632 54.0048 38.331 54.0048 37.6413V37.6413Z" stroke="white" stroke-width="1.15" stroke-miterlimit="10"/>
<path d="M51.5086 36.0483V33.8518C51.5086 33.1662 51.1432 32.5299 50.5479 32.185L48.6471 31.0888C48.0518 30.744 47.321 30.744 46.7257 31.0888L44.8248 32.185C44.2295 32.5299 43.8641 33.1621 43.8641 33.8518V36.0483C43.8641 36.7339 44.2295 37.3703 44.8248 37.7151L46.7257 38.8113C47.321 39.1561 48.0518 39.1561 48.6471 38.8113L50.5479 37.7151C51.1432 37.3703 51.5086 36.738 51.5086 36.0483Z" fill="white"/>
<path d="M61.4645 50.6926V45.5156C61.4645 44.83 61.0991 44.1936 60.5038 43.8487L56.0206 41.2582C55.4253 40.9133 54.6945 40.9133 54.0992 41.2582L49.616 43.8487C49.0207 44.1936 48.6553 44.8258 48.6553 45.5156V50.6926C48.6553 51.3782 49.0207 52.0146 49.616 52.3595L54.0992 54.95C54.6945 55.2949 55.4253 55.2949 56.0206 54.95L60.5038 52.3595C61.0991 52.0146 61.4645 51.3824 61.4645 50.6926Z" stroke="white" stroke-width="1.15" stroke-miterlimit="10"/>
<path d="M58.9642 49.0996V46.9032C58.9642 46.2176 58.5988 45.5812 58.0035 45.2363L56.1027 44.1402C55.5074 43.7953 54.7766 43.7953 54.1813 44.1402L52.2805 45.2363C51.6852 45.5812 51.3198 46.2135 51.3198 46.9032V49.0996C51.3198 49.7853 51.6852 50.4216 52.2805 50.7665L54.1813 51.8627C54.7766 52.2075 55.5074 52.2075 56.1027 51.8627L58.0035 50.7665C58.5988 50.4216 58.9642 49.7894 58.9642 49.0996Z" fill="white"/>
<path d="M31.2602 23.0995V17.9225C31.2602 17.2369 30.8948 16.6005 30.2995 16.2556L25.8163 13.6692C25.221 13.3243 24.4902 13.3243 23.8949 13.6692L19.4117 16.2597C18.8164 16.6046 18.451 17.2369 18.451 17.9266V23.1036C18.451 23.7893 18.8164 24.4256 19.4117 24.7705L23.8949 27.3611C24.4902 27.7059 25.221 27.7059 25.8163 27.3611L30.2995 24.7705C30.8948 24.4256 31.2602 23.7934 31.2602 23.1036V23.0995Z" stroke="white" stroke-width="1.15" stroke-miterlimit="10"/>
<path d="M28.764 21.5065V19.31C28.764 18.6244 28.3986 17.9881 27.8033 17.6432L25.9025 16.547C25.3072 16.2022 24.5764 16.2022 23.9811 16.547L22.0803 17.6432C21.485 17.9881 21.1196 18.6203 21.1196 19.31V21.5065C21.1196 22.1921 21.485 22.8285 22.0803 23.1733L23.9811 24.2695C24.5764 24.6144 25.3072 24.6144 25.9025 24.2695L27.8033 23.1733C28.3986 22.8285 28.764 22.1962 28.764 21.5065Z" fill="white"/>
</g>
<defs>
<clipPath id="clip0_1430_5879">
<rect width="51.75" height="42.6152" fill="white" transform="translate(10.125 13)"/>
</clipPath>
</defs>
</svg>