<svg width="72" height="72" viewBox="0 0 72 72" fill="none" xmlns="http://www.w3.org/2000/svg">
<rect width="72" height="72" rx="16" fill="#302C3F"/>
<path d="M31.8182 58L12 46.7512V24.2488L31.8182 13L51.6365 24.2488V46.7464L31.8182 57.9952V58ZM14.4341 45.3678L31.8182 55.2381L49.2024 45.3678V25.6322L31.8182 15.7619L14.4341 25.6322V45.3678Z" fill="white"/>
<path d="M40.1818 58L20.3635 46.7512V24.2488L40.1818 13L60 24.2488V46.7464L40.1818 57.9952V58ZM22.7976 45.3678L40.1818 55.2381L57.5659 45.3678V25.6322L40.1818 15.7619L22.7976 25.6322V45.3678Z" fill="white"/>
<path d="M36 24.5265L27.5635 29.318V41.6773L36 46.4688L44.4365 41.6773V29.318L36 24.5265ZM40.8731 39.0638L36 41.8305L31.127 39.0638V31.9268L36 29.16L40.8731 31.9268V39.0638Z" fill="white"/>
</svg>
