<svg width="72" height="72" viewBox="0 0 72 72" fill="none" xmlns="http://www.w3.org/2000/svg">
<rect width="72" height="72" rx="16" fill="#302C3F"/>
<path d="M36 16.4221C46.7967 16.4221 55.5779 25.2033 55.5779 36C55.5779 46.7967 46.7967 55.5779 36 55.5779C25.2033 55.5779 16.4221 46.7967 16.4221 36C16.4221 25.2033 25.2033 16.4221 36 16.4221ZM36 14C23.8493 14 14 23.8493 14 36C14 48.1507 23.8493 58 36 58C48.1507 58 58 48.1507 58 36C58 23.8493 48.1507 14 36 14Z" fill="white"/>
<path d="M49.6746 24.8816C49.6746 24.8816 49.6701 24.8772 49.6656 24.8727C49.6344 24.8325 49.6031 24.7967 49.5763 24.761C49.259 24.3767 48.9238 24.0102 48.5753 23.6527C44.8438 20.0732 38.936 19.6487 34.704 22.8886C31.3435 25.4626 29.8777 29.6722 30.767 33.6629C31.2407 32.9345 31.7904 32.2507 32.416 31.6296C37.3228 26.7228 45.313 26.7228 50.2198 31.6296C51.8777 33.2875 53.0173 35.3297 53.5535 37.5552C53.5982 37.0413 53.625 36.5229 53.625 35.9956C53.625 31.786 52.1414 27.916 49.6701 24.8816H49.6746Z" fill="white"/>
<path d="M48.8657 32.988C46.7877 30.91 44.0527 29.8688 41.3223 29.8688C38.5918 29.8688 35.8569 30.91 33.7789 32.988C32.7734 33.9935 31.9959 35.1599 31.4596 36.4648C31.4507 36.4871 31.4373 36.505 31.4283 36.5229C31.4104 36.5541 31.397 36.5899 31.3747 36.6212C31.3568 36.648 31.3389 36.6703 31.3211 36.6927C31.3032 36.7195 31.2808 36.7418 31.2585 36.7686C31.2362 36.791 31.2093 36.8133 31.187 36.8312C31.1647 36.8491 31.1423 36.8714 31.12 36.8893C31.0887 36.9117 31.0574 36.9251 31.0217 36.9429C31.0038 36.9519 30.9859 36.9653 30.9636 36.9742C30.9591 36.9742 30.9546 36.9742 30.9502 36.9787C30.9412 36.9787 30.9367 36.9832 30.9278 36.9876C30.8742 37.01 30.8206 37.0278 30.7669 37.0368C30.7088 37.0502 30.6507 37.0547 30.5882 37.0547C30.5882 37.0547 30.5837 37.0547 30.5792 37.0547C30.5792 37.0547 30.5792 37.0547 30.5748 37.0547C30.5211 37.0547 30.4675 37.0502 30.4139 37.0412C30.4005 37.0412 30.3826 37.0368 30.3692 37.0323C30.3245 37.0234 30.2798 37.01 30.2351 36.9921C30.2262 36.9921 30.2173 36.9921 30.2083 36.9832C30.2083 36.9832 30.1994 36.9832 30.1949 36.9787C30.1413 36.9563 30.0921 36.9295 30.043 36.8982C30.034 36.8893 30.0251 36.8848 30.0117 36.8759C29.976 36.8491 29.9402 36.8223 29.9089 36.791C29.8955 36.7776 29.8866 36.7686 29.8732 36.7552C29.8419 36.724 29.8151 36.6882 29.7883 36.648C29.7838 36.6391 29.7749 36.6301 29.7704 36.6212C29.7436 36.581 29.7168 36.5363 29.6944 36.4871C29.6944 36.4826 29.6899 36.4737 29.6855 36.4692C29.6855 36.4692 29.6855 36.4692 29.6855 36.4648C27.3125 31.129 28.8945 24.9218 33.5421 21.3646C35.4458 19.9033 37.6802 19.0408 40.0129 18.8263C38.4041 18.451 36.7149 18.2945 34.9721 18.3973C26.0479 18.9112 18.8575 26.1418 18.3928 35.0616C17.8654 45.2058 25.9674 53.6295 35.9999 53.6295C41.3178 53.6295 46.0905 51.2655 49.3259 47.5296C50.0544 46.6894 50.6934 45.7689 51.1313 44.7455C51.6989 43.4317 51.9938 42.0061 51.9938 40.5314C51.9938 37.6803 50.8856 35.0035 48.8701 32.988H48.8657ZM49.6566 42.1134C49.3617 43.6864 48.5573 45.1075 47.4893 46.3006C44.5711 49.545 40.3883 51.4398 35.9955 51.4398C27.4824 51.4398 20.5557 44.5131 20.5557 35.9955C20.5557 29.6409 24.4167 24.1666 29.9179 21.8026C26.3071 26.0435 25.3463 32.0272 27.6611 37.296L27.7013 37.3988L27.7371 37.4658C27.7952 37.582 27.8577 37.6937 27.9248 37.8054L27.9784 37.8859C28.3985 38.516 29.0196 38.9181 29.7078 39.1103C30.8161 39.4142 32.0316 39.0969 32.8449 38.2836C32.9164 38.2121 32.9835 38.1316 33.0371 38.0467C33.0907 37.9797 33.1488 37.9037 33.2024 37.8233L33.2158 37.8009C33.2829 37.6982 33.332 37.5998 33.3633 37.5373C33.3901 37.4881 33.4214 37.4256 33.4572 37.3496C33.7521 36.6793 34.0873 36.0268 34.5297 35.4414C36.1742 33.2696 38.6499 32.054 41.3223 32.054C43.5924 32.054 45.7196 32.9344 47.3194 34.5342C48.9237 36.1341 49.8041 38.2657 49.8041 40.5314C49.8041 41.0677 49.755 41.595 49.6566 42.1134Z" fill="white"/>
</svg>
