<?xml version="1.0" encoding="UTF-8"?><svg id="a" xmlns="http://www.w3.org/2000/svg" xmlns:xlink="http://www.w3.org/1999/xlink" viewBox="0 0 256 256"><defs><linearGradient id="b" x1="30.58" y1="128" x2="225.42" y2="128" gradientUnits="userSpaceOnUse"><stop offset="0" stop-color="#00ffa3"/><stop offset="1" stop-color="#dc1fff"/></linearGradient></defs><path d="m127.27,31.3c-53.8,0-96.7,43.62-96.7,96.7,0,50.17,38.53,91.61,87.97,96.7v-6.54c0-30.54,24.72-55.26,55.26-55.26,14.54,0,27.63,5.82,37.81,14.54,8.72-14.54,13.81-31.26,13.81-49.44-.73-53.8-44.35-96.7-98.15-96.7Zm-34.17,125.05c-18.18,0-32.72-14.54-32.72-32.72s14.54-31.99,32.72-31.99,31.99,14.54,31.99,31.99c.73,18.18-13.81,32.72-31.99,32.72Zm51.62-71.98c-9.45,0-16.72-7.27-16.72-16.72s7.27-16.72,16.72-16.72,16.72,7.27,16.72,16.72-7.27,16.72-16.72,16.72Z" fill="url(#b)" stroke-width="0"/></svg>