<?xml version="1.0" encoding="UTF-8"?><svg id="a" xmlns="http://www.w3.org/2000/svg" xmlns:xlink="http://www.w3.org/1999/xlink" viewBox="0 0 256 256"><defs><linearGradient id="b" x1="29.59" y1="87.86" x2="237.19" y2="87.86" gradientUnits="userSpaceOnUse"><stop offset="0" stop-color="#cce0f4"/><stop offset=".09" stop-color="#c2daf0"/><stop offset=".25" stop-color="#a9c9e6"/><stop offset=".44" stop-color="#80afd7"/><stop offset=".57" stop-color="#619ccc"/><stop offset=".87" stop-color="#916be0"/><stop offset=".99" stop-color="#1be4ae"/></linearGradient><linearGradient id="d" x1="18.81" y1="168.13" x2="226.41" y2="168.13" xlink:href="#b"/></defs><path id="c" d="m231.19,61.72L36.27,139.45h0c-.46-3.8-.69-7.63-.69-11.47-.05-14.43,3.37-28.67,9.98-41.51,15.63-30.79,47.22-50.2,81.75-50.22,10.43-.02,20.79,1.76,30.61,5.27" fill="none" stroke="url(#b)" stroke-linecap="round" stroke-linejoin="round" stroke-width="12"/><path id="e" d="m97.96,214.44c43.46,15.42,91.62-3.82,112.48-44.95,6.6-12.84,10.02-27.07,9.98-41.51,0-3.83-.23-7.66-.69-11.47h0L24.81,194.26" fill="none" stroke="url(#d)" stroke-linecap="round" stroke-linejoin="round" stroke-width="12"/></svg>