<?xml version="1.0" encoding="UTF-8"?><svg id="a" xmlns="http://www.w3.org/2000/svg" xmlns:xlink="http://www.w3.org/1999/xlink" viewBox="0 0 256 256"><defs><linearGradient id="b" x1="132.8" y1="-9.75" x2="122.59" y2="283.35" gradientUnits="userSpaceOnUse"><stop offset="0" stop-color="#00ffa3"/><stop offset="1" stop-color="#dc1fff"/></linearGradient></defs><path id="c" d="m237.13,128v22.8c0,1.51-1.22,2.74-2.74,2.74h-20.06v32.52h20.06c1.51,0,2.74,1.22,2.74,2.74v45.6c0,1.52-1.22,2.74-2.74,2.74h-45.6c-1.51,0-2.74-1.22-2.74-2.74v-20.06h-32.53v20.06c0,1.51-1.22,2.74-2.74,2.74h-45.6c-1.51,0-2.74-1.22-2.74-2.74v-20.06h-32.53v20.06c0,1.51-1.22,2.74-2.74,2.74H21.6c-1.51,0-2.74-1.22-2.74-2.74v-45.6c0-1.51,1.22-2.74,2.74-2.74h20.06v-32.53h-20.06c-1.51,0-2.74-1.22-2.74-2.74v-45.6c0-1.51,1.22-2.74,2.74-2.74h20.06v-32.53h-20.06c-1.51,0-2.74-1.22-2.74-2.74V21.6c0-1.51,1.22-2.74,2.74-2.74h45.6c1.51,0,2.74,1.22,2.74,2.74v20.06h32.53v-20.06c0-1.51,1.22-2.74,2.74-2.74h45.6c1.51,0,2.74,1.22,2.74,2.74v20.06h32.52v-20.06c0-1.51,1.22-2.74,2.74-2.74h45.6c1.51,0,2.74,1.22,2.74,2.74v45.6c0,1.51-1.22,2.74-2.74,2.74h-20.06v32.53h20.07c1.51,0,2.74,1.22,2.74,2.74v22.8m-45.6,103.66h40.12v-40.13h-40.12v40.13Zm-83.6,0h40.13v-40.13h-40.13s0,40.13,0,40.13Zm-83.6,0h40.13v-40.13H24.34v40.13Zm129.2-22.8h32.52v-20.06c0-1.51,1.22-2.74,2.74-2.74h20.06v-32.53h-20.06c-1.51,0-2.74-1.22-2.74-2.74v-20.06h-32.53v20.06c0,1.51-1.22,2.74-2.74,2.74h-20.06v32.52h20.06c1.51,0,2.74,1.22,2.74,2.74v20.07Zm-83.6,0h32.53v-20.06c0-1.51,1.22-2.74,2.74-2.74h20.06v-32.53h-20.06c-1.51,0-2.74-1.22-2.74-2.74v-20.06h-32.53v20.06c0,1.51-1.22,2.74-2.74,2.74h-20.06v32.52h20.06c1.51,0,2.74,1.22,2.74,2.74v20.07Zm141.66-60.8h20.06v-40.13h-40.13v40.13h20.06Zm-83.6,0h20.06v-40.13h-40.13v40.13h20.06Zm-83.6,0h20.06v-40.13H24.34v40.13h20.06Zm109.13-22.8h32.52v-20.06c0-1.51,1.22-2.74,2.74-2.74h20.06v-32.53h-20.06c-1.51,0-2.74-1.22-2.74-2.74v-20.06h-32.53v20.06c0,1.51-1.22,2.74-2.74,2.74h-20.06v32.53h20.06c1.51,0,2.74,1.22,2.74,2.74v20.06Zm-83.6,0h32.53v-20.06c0-1.51,1.22-2.74,2.74-2.74h20.06v-32.53h-20.06c-1.51,0-2.74-1.22-2.74-2.74v-20.06h-32.53v20.06c0,1.51-1.22,2.74-2.74,2.74h-20.06v32.53h20.06c1.51,0,2.74,1.22,2.74,2.74v20.06Zm141.66-60.8h20.06V24.34h-40.13v40.13s20.06,0,20.06,0Zm-83.6,0h20.06V24.34h-40.13v40.13s20.06,0,20.06,0Zm-83.6,0h20.06V24.34H24.34v40.13h20.06Z" fill="url(#b)" stroke-width="0"/><rect id="d" x="11.81" y="6.47" width="243.19" height="243.19" fill="none" stroke-width="0"/></svg>