<?xml version="1.0" encoding="UTF-8"?><svg id="a" xmlns="http://www.w3.org/2000/svg" xmlns:xlink="http://www.w3.org/1999/xlink" viewBox="0 0 256 256"><defs><linearGradient id="b" x1="22.27" y1="124.78" x2="51.09" y2="124.78" gradientUnits="userSpaceOnUse"><stop offset="0" stop-color="#00ffa3"/><stop offset="1" stop-color="#dc1fff"/></linearGradient><linearGradient id="c" x1="57.65" y1="97.37" x2="61.67" y2="97.37" xlink:href="#b"/><linearGradient id="d" x1="58.04" y1="125.16" x2="61.28" y2="125.16" xlink:href="#b"/><linearGradient id="e" x1="173.04" y1="124.89" x2="191.15" y2="124.89" xlink:href="#b"/><linearGradient id="f" x1="99.45" y1="130.11" x2="132.9" y2="130.11" xlink:href="#b"/><linearGradient id="g" x1="65.93" y1="125.25" x2="94.94" y2="125.25" xlink:href="#b"/><linearGradient id="h" x1="191.44" y1="125.25" x2="220.44" y2="125.25" xlink:href="#b"/><linearGradient id="i" x1="137.48" y1="125.25" x2="166.48" y2="125.25" xlink:href="#b"/><linearGradient id="j" x1="136.98" y1="154.84" x2="142.17" y2="154.84" xlink:href="#b"/><linearGradient id="k" x1="143.54" y1="156.37" x2="148.44" y2="156.37" xlink:href="#b"/><linearGradient id="l" x1="149.07" y1="156.46" x2="156.58" y2="156.46" xlink:href="#b"/><linearGradient id="m" x1="158.94" y1="156.41" x2="171.59" y2="156.41" xlink:href="#b"/><linearGradient id="n" x1="173.46" y1="156.44" x2="181.5" y2="156.44" xlink:href="#b"/><linearGradient id="o" x1="182.34" y1="156.48" x2="194.86" y2="156.48" xlink:href="#b"/><linearGradient id="p" x1="195.7" y1="156.48" x2="204.55" y2="156.48" xlink:href="#b"/><linearGradient id="q" x1="206.52" y1="156.37" x2="211.42" y2="156.37" xlink:href="#b"/><linearGradient id="r" x1="213.01" y1="154.87" x2="220.83" y2="154.87" xlink:href="#b"/><linearGradient id="s" x1="222.38" y1="154.33" x2="233.73" y2="154.33" xlink:href="#b"/></defs><path d="m37.63,107.58c-6.13,0-9.9,3.1-12.12,7.05v-6.24l-3.24,1.87v31.72h3.24v-19.45c0-6.98,5.08-11.98,11.67-11.98s10.68,4.55,10.68,11.45v19.98h3.24v-20.55c0-8.07-4.93-13.85-13.46-13.85" fill="url(#b)" stroke-width="0"/><rect x="57.65" y="95.17" width="4.02" height="4.41" fill="url(#c)" stroke-width="0"/><polygon points="58.04 110.22 58.04 141.97 61.28 141.97 61.28 108.35 61.25 108.35 58.04 110.22" fill="url(#d)" stroke-width="0"/><path d="m176.28,117.9v-9.55l-3.24,1.87v31.75h3.24v-13.78c0-10.93,6.8-16.81,14.56-16.81h.32v-3.56c-6.63-.25-12.23,4.09-14.87,10.08" fill="url(#e)" stroke-width="0"/><path d="m129.62,108.35v6.73c-2.78-3.95-7.33-7.51-14.03-7.51-8.11,0-16.14,6.27-16.14,15.97v.14c0,9.62,8.04,15.82,16.14,15.82,4.62,0,8.18-1.73,10.89-4.19v-3.38c-2.68,2.82-6.63,4.48-10.57,4.48-6.91,0-12.97-5.29-12.97-12.86v-.14c0-7.82,5.92-12.72,12.97-12.72s13.71,5,13.71,12.79v13.11c0,8.63-5.46,13.04-13.18,13.04-4.93,0-9.55-1.66-13.57-4.76l-1.9,2.64c4.62,3.42,9.83,5.15,15.44,5.15,4.93,0,9.3-1.59,12.19-4.48,2.71-2.71,4.3-6.52,4.3-11.38v-28.41h-3.28v-.04Z" fill="url(#f)" stroke-width="0"/><path d="m91.48,111.52c-2.43-2.43-6.06-3.7-10.61-3.7s-8.25,1.2-11.91,2.89l1.2,2.82c3.1-1.59,6.45-2.71,10.54-2.71,6.91,0,11.07,3.49,11.07,10.29l.07,8.25c0,6.13-5.85,10.36-12.72,10.36-5.15,0-9.76-2.82-9.76-7.72v-.14c0-4.69,3.95-7.86,11.07-7.86,1.45,0,2.75.07,4.02.18l4.12-2.4c-2.29-.42-4.79-.7-7.93-.7-8.71,0-14.7,3.95-14.7,10.93v.14c0,6.98,6.73,10.54,12.97,10.54s10.54-3.17,12.86-6.38v5.6h3.17v-20.97c-.04-4.09-1.23-7.15-3.45-9.41" fill="url(#g)" stroke-width="0"/><path d="m216.99,111.52c-2.43-2.43-6.06-3.7-10.61-3.7s-8.25,1.2-11.91,2.89l1.2,2.82c3.1-1.59,6.45-2.71,10.54-2.71,6.91,0,11.07,3.49,11.07,10.29l.07,8.25c0,6.13-5.85,10.36-12.72,10.36-5.15,0-9.76-2.82-9.76-7.72v-.14c0-4.69,3.95-7.86,11.07-7.86,1.44,0,2.75.07,4.02.18l4.12-2.4c-2.29-.42-4.79-.7-7.93-.7-8.71,0-14.7,3.95-14.7,10.93v.14c0,6.98,6.73,10.54,12.97,10.54s10.54-3.17,12.86-6.38v5.6h3.17v-20.97c-.04-4.09-1.2-7.15-3.45-9.41" fill="url(#h)" stroke-width="0"/><path d="m163.03,111.52c-2.43-2.43-6.06-3.7-10.61-3.7s-8.25,1.2-11.91,2.89l1.2,2.82c3.1-1.59,6.45-2.71,10.54-2.71,6.91,0,11.07,3.49,11.07,10.29l.07,8.25c0,6.13-5.85,10.36-12.72,10.36-5.15,0-9.76-2.82-9.76-7.72v-.14c0-4.69,3.95-7.86,11.07-7.86,1.45,0,2.75.07,4.02.18l4.12-2.4c-2.29-.42-4.79-.7-7.93-.7-8.71,0-14.7,3.95-14.7,10.93v.14c0,6.98,6.73,10.54,12.97,10.54s10.54-3.17,12.86-6.38v5.6h3.17v-20.97c0-4.09-1.2-7.15-3.45-9.41" fill="url(#i)" stroke-width="0"/><path d="m142.17,152.37v1.59h-2.19v6.66h-1.94v-6.66h-1.06v-1.59h1.06v-.6c0-.92.21-1.62.67-2.04.46-.46,1.09-.67,1.9-.67.35,0,.63.04.88.07s.46.11.67.18v1.62c-.18-.07-.39-.11-.53-.14-.18-.04-.35-.07-.56-.07-.74,0-1.09.42-1.09,1.27v.46h2.19v-.07Z" fill="url(#j)" stroke-width="0"/><path d="m145.48,160.62h-1.94v-8.32h1.94v1.87c.25-.63.63-1.13,1.13-1.52.49-.39,1.09-.56,1.83-.53v2.01h-.11c-.42,0-.81.07-1.16.21s-.63.35-.88.6c-.25.28-.46.63-.6,1.02-.14.42-.21.88-.21,1.45v3.21h0Z" fill="url(#k)" stroke-width="0"/><path d="m154.75,160.62v-1.02c-.28.35-.63.63-1.09.85-.46.25-.99.35-1.62.35-.39,0-.78-.07-1.13-.18s-.67-.28-.95-.49c-.28-.21-.49-.49-.63-.81-.18-.32-.25-.7-.25-1.13v-.04c0-.46.07-.85.25-1.2s.39-.6.7-.85c.32-.21.67-.39,1.06-.49.42-.11.88-.18,1.34-.18.49,0,.92.04,1.27.11.35.07.7.14,1.02.25v-.21c0-.56-.18-1.02-.53-1.34s-.85-.46-1.52-.46c-.46,0-.88.04-1.27.14-.35.11-.74.21-1.13.39l-.53-1.52c.46-.21.95-.39,1.41-.49.49-.14,1.06-.18,1.76-.18,1.23,0,2.15.32,2.75.92.6.6.92,1.48.92,2.57v4.93h-1.83v.07Zm.07-3.52c-.25-.11-.53-.18-.85-.25s-.67-.11-1.06-.11c-.6,0-1.06.11-1.41.35s-.49.56-.49.99v.04c0,.39.14.7.46.92s.7.32,1.13.32c.32,0,.6-.04.88-.14.28-.07.49-.21.7-.35s.35-.35.46-.56.18-.46.18-.7v-.49Z" fill="url(#l)" stroke-width="0"/><path d="m167.05,152.55c.46-.28.99-.39,1.62-.39.92,0,1.62.28,2.15.81.53.56.78,1.34.78,2.36v5.32h-1.94v-4.72c0-.67-.14-1.16-.42-1.52-.28-.35-.7-.53-1.23-.53s-.95.18-1.27.53-.49.85-.49,1.52v4.69h-1.94v-4.72c0-.63-.14-1.16-.42-1.48-.28-.35-.7-.53-1.23-.53s-.95.18-1.27.56c-.32.35-.49.88-.49,1.52v4.65h-1.94v-8.32h1.94v1.27c.14-.18.28-.39.46-.53.14-.18.35-.32.53-.46.21-.14.42-.25.7-.32s.53-.11.85-.11c.6,0,1.09.14,1.52.39.42.28.74.63.95,1.06.28-.42.7-.78,1.16-1.06Z" fill="url(#m)" stroke-width="0"/><path d="m176.14,158.72c.42.35.95.53,1.59.53.46,0,.88-.07,1.23-.25s.7-.42,1.02-.74l1.13.99c-.39.46-.88.85-1.41,1.13-.56.28-1.2.42-1.97.42-.6,0-1.16-.11-1.69-.32s-.99-.49-1.34-.88c-.39-.39-.67-.85-.92-1.37-.21-.53-.32-1.13-.32-1.76,0-.6.11-1.16.32-1.69s.49-.99.85-1.37.78-.7,1.27-.95,1.06-.35,1.66-.35c.67,0,1.23.11,1.73.35s.92.56,1.23.99c.32.42.56.88.74,1.45s.25,1.13.25,1.73v.25c0,.07,0,.18-.04.28h-6.1c.07.7.35,1.23.78,1.59Zm3.45-2.82c-.04-.32-.11-.6-.21-.85-.11-.28-.25-.49-.42-.7-.18-.18-.39-.35-.63-.46-.25-.11-.53-.18-.85-.18-.6,0-1.06.21-1.45.6s-.63.92-.7,1.59h4.26Z" fill="url(#n)" stroke-width="0"/><path d="m191.26,158.01l1.69-5.71h1.9l-2.71,8.39h-1.69l-1.87-5.67-1.87,5.67h-1.69l-2.68-8.39h1.94l1.66,5.71,1.83-5.74h1.62l1.87,5.74Z" fill="url(#o)" stroke-width="0"/><path d="m204.23,158.15c-.21.53-.53.99-.92,1.37s-.88.7-1.41.95c-.56.25-1.13.35-1.8.35-.63,0-1.2-.11-1.76-.35-.53-.21-1.02-.53-1.41-.92s-.7-.85-.92-1.37-.32-1.09-.32-1.69.11-1.16.35-1.69c.21-.53.53-.99.92-1.37s.85-.7,1.41-.95c.53-.25,1.13-.35,1.76-.35s1.23.11,1.76.35c.53.21,1.02.53,1.41.92s.7.85.92,1.37.32,1.09.32,1.69c.04.6-.07,1.16-.32,1.69Zm-1.76-2.68c-.14-.32-.32-.6-.53-.85-.21-.25-.49-.46-.81-.6-.32-.14-.63-.21-1.02-.21s-.7.07-1.02.21-.56.32-.78.56c-.21.25-.39.53-.49.85-.11.32-.18.67-.18,1.02s.07.7.18,1.06c.14.32.28.63.53.85.21.25.49.42.81.56.32.14.63.21,1.02.21s.74-.07,1.06-.21.56-.32.78-.56c.21-.25.39-.53.49-.85.11-.32.18-.67.18-1.02-.04-.35-.07-.7-.21-1.02Z" fill="url(#p)" stroke-width="0"/><path d="m208.42,160.62h-1.9v-8.32h1.94v1.87c.25-.63.63-1.13,1.13-1.52.49-.39,1.09-.56,1.83-.53v2.01h-.11c-.42,0-.81.07-1.16.21s-.63.35-.88.6c-.25.28-.46.63-.6,1.02-.14.42-.21.88-.21,1.45v3.21h-.04Z" fill="url(#q)" stroke-width="0"/><path d="m220.83,160.62h-2.22l-2.5-3.59-1.16,1.2v2.36h-1.94v-11.45h1.94v6.87l3.45-3.7h2.33l-3.31,3.38,3.42,4.93Z" fill="url(#r)" stroke-width="0"/><path d="m233.31,156.53c-.28.7-.7,1.3-1.2,1.83-.53.53-1.13.92-1.83,1.23s-1.44.46-2.26.46-1.55-.14-2.22-.46c-.7-.28-1.3-.7-1.8-1.23-.49-.53-.92-1.13-1.2-1.8-.28-.7-.42-1.45-.42-2.22s.14-1.52.42-2.22.7-1.3,1.2-1.83c.53-.53,1.13-.92,1.83-1.23s1.44-.46,2.26-.46,1.55.14,2.22.46c.7.28,1.3.7,1.8,1.23.49.53.92,1.13,1.2,1.8.28.7.42,1.45.42,2.22.04.78-.11,1.52-.42,2.22Zm-.53-4.19c-.25-.63-.6-1.16-1.06-1.62-.46-.46-.99-.81-1.62-1.09-.63-.28-1.3-.39-2.01-.39-.74,0-1.41.14-2.01.42-.63.28-1.16.63-1.62,1.09-.46.46-.81,1.02-1.09,1.66-.25.63-.39,1.3-.39,2.01s.14,1.37.39,2.01c.25.63.6,1.16,1.06,1.62.46.46.99.81,1.62,1.09.63.28,1.3.39,2.01.39.74,0,1.41-.14,2.01-.42.63-.28,1.16-.63,1.62-1.09.46-.46.81-1.02,1.09-1.62.25-.63.39-1.3.39-2.01,0-.78-.14-1.45-.39-2.04Zm-2.43,1.94c-.25.28-.6.49-.99.63l1.62,2.26h-1.34l-1.44-2.08h-1.23v2.08h-1.13v-5.96h2.68c.7,0,1.23.18,1.66.49.42.35.63.81.63,1.41-.07.46-.21.85-.46,1.16Zm-1.09-1.83c-.21-.18-.49-.25-.88-.25h-1.48v1.9h1.48c.35,0,.67-.07.88-.25s.32-.39.32-.7c-.04-.32-.14-.53-.32-.7Z" fill="url(#s)" stroke-width="0"/></svg>