<?xml version="1.0" encoding="UTF-8"?><svg id="a" xmlns="http://www.w3.org/2000/svg" xmlns:xlink="http://www.w3.org/1999/xlink" viewBox="0 0 256 256"><defs><linearGradient id="b" x1="128" y1="173.66" x2="128" y2="8.31" gradientTransform="translate(0 29.98)" gradientUnits="userSpaceOnUse"><stop offset="0" stop-color="#00ffa3"/><stop offset="1" stop-color="#dc1fff"/></linearGradient><linearGradient id="c" x1="128.08" y1="194.22" x2="128.08" y2="-5.07" xlink:href="#b"/><linearGradient id="d" x1="128" y1="214.79" x2="128" y2="-18.74" xlink:href="#b"/></defs><path d="m128,203.63c-35.45,0-64.25-28.79-64.25-64.25s58.16-95.34,60.63-97.89l3.04-3.21,3.13,3.13c2.55,2.55,61.7,63.42,61.7,97.89,0,35.54-28.79,64.33-64.25,64.33h0Zm-.49-152.92c-5.1,5.51-15.79,17.44-26.41,31.42-18.84,24.84-28.79,44.59-28.79,57.17,0,30.68,25.01,55.69,55.69,55.69s55.69-25.01,55.69-55.69c0-12.59-10.12-32.33-29.29-57.17-10.78-13.9-21.72-25.91-26.9-31.42Z" fill="url(#b)" stroke-width="0"/><path d="m128,224.2c-46.81,0-84.81-38.09-84.81-84.81S107.02,29.82,109.74,27.18c1.65-1.65,4.44-1.65,6.09,0s1.65,4.44,0,6.09c-.66.66-64,64-64,106.12s34.22,76.26,76.26,76.26,76.26-34.22,76.26-76.26c0-17.27-11.19-41.13-32.41-69.18-16.29-21.47-32.66-37.76-32.82-37.92-1.73-1.65-1.73-4.36,0-6.09,1.65-1.73,4.36-1.73,6.09,0,2.8,2.71,67.78,67.37,67.78,113.19-.16,46.72-38.17,84.81-84.98,84.81h0Z" fill="url(#c)" stroke-width="0"/><path d="m128,244.77c-56.92,0-103.24-46.31-103.24-103.24,0-23.53,11.85-52.48,35.13-85.96,17.19-24.68,34.06-42.28,34.8-43.02,1.65-1.73,4.36-1.73,6.09-.08,1.73,1.65,1.73,4.36.08,6.09-.16.16-17.19,17.93-33.97,42.04-21.96,31.51-33.56,59.48-33.56,80.95,0,52.15,42.45,94.68,94.68,94.68s94.68-42.45,94.68-94.68c0-21.47-11.68-49.44-33.81-80.95-16.95-24.1-34.14-41.87-34.3-42.04-1.65-1.73-1.65-4.44.08-6.09s4.44-1.65,6.09.08c2.88,2.96,70.5,73.21,70.5,128.99s-46.31,103.24-103.24,103.24Z" fill="url(#d)" stroke-width="0"/></svg>