<?xml version="1.0" encoding="UTF-8"?><svg id="a" xmlns="http://www.w3.org/2000/svg" xmlns:xlink="http://www.w3.org/1999/xlink" viewBox="0 0 256 256"><defs><linearGradient id="b" x1="222.65" y1="-42.92" x2="94.33" y2="202.86" gradientTransform="translate(0 58)" gradientUnits="userSpaceOnUse"><stop offset="0" stop-color="#00ffa3"/><stop offset="1" stop-color="#dc1fff"/></linearGradient><linearGradient id="c" x1="166.55" y1="-72.21" x2="38.23" y2="173.57" xlink:href="#b"/><linearGradient id="d" x1="194.42" y1="-57.66" x2="66.1" y2="188.12" xlink:href="#b"/></defs><path d="m49.58,175.93c1.4-1.4,3.33-2.22,5.37-2.22h185.41c3.39,0,5.08,4.09,2.69,6.48l-36.63,36.63c-1.4,1.4-3.33,2.22-5.37,2.22H15.64c-3.39,0-5.08-4.09-2.69-6.48l36.63-36.63Z" fill="url(#b)" stroke-width="0"/><path d="m49.58,39.18c1.46-1.4,3.39-2.22,5.37-2.22h185.41c3.39,0,5.08,4.09,2.69,6.48l-36.63,36.63c-1.4,1.4-3.33,2.22-5.37,2.22H15.64c-3.39,0-5.08-4.09-2.69-6.48l36.63-36.63Z" fill="url(#c)" stroke-width="0"/><path d="m206.42,107.12c-1.4-1.4-3.33-2.22-5.37-2.22H15.64c-3.39,0-5.08,4.09-2.69,6.48l36.63,36.63c1.4,1.4,3.33,2.22,5.37,2.22h185.41c3.39,0,5.08-4.09,2.69-6.48l-36.63-36.63Z" fill="url(#d)" stroke-width="0"/></svg>