<?xml version="1.0" encoding="UTF-8"?><svg id="a" xmlns="http://www.w3.org/2000/svg" xmlns:xlink="http://www.w3.org/1999/xlink" viewBox="0 0 256 256"><defs><linearGradient id="e" x1="5.28" y1="111.36" x2="240.69" y2="194.09" gradientUnits="userSpaceOnUse"><stop offset="0" stop-color="#00ffa3"/><stop offset="1" stop-color="#dc1fff"/></linearGradient><linearGradient id="g" x1="2.31" y1="119.82" x2="237.72" y2="202.54" xlink:href="#e"/><linearGradient id="i" x1="6.9" y1="106.76" x2="242.3" y2="189.48" xlink:href="#e"/><linearGradient id="k" x1="13.16" y1="88.96" x2="248.56" y2="171.68" xlink:href="#e"/><linearGradient id="n" x1="5.48" y1="110.81" x2="240.88" y2="193.53" xlink:href="#e"/><linearGradient id="p" x1="10.15" y1="97.53" x2="245.56" y2="180.25" xlink:href="#e"/><linearGradient id="s" x1=".81" y1="124.1" x2="236.21" y2="206.82" xlink:href="#e"/><linearGradient id="u" x1="10.72" y1="95.89" x2="246.12" y2="178.61" xlink:href="#e"/><linearGradient id="w" x1="13.09" y1="89.15" x2="248.49" y2="171.87" xlink:href="#e"/><linearGradient id="y" x1="14.33" y1="85.62" x2="249.73" y2="168.35" xlink:href="#e"/><linearGradient id="aa" x1="16.66" y1="78.97" x2="252.07" y2="161.69" xlink:href="#e"/><linearGradient id="ac" x1="18.84" y1="72.79" x2="254.24" y2="155.51" xlink:href="#e"/><linearGradient id="ae" x1="21.86" y1="64.2" x2="257.26" y2="146.92" xlink:href="#e"/><linearGradient id="ag" x1="23.92" y1="58.33" x2="259.32" y2="141.06" xlink:href="#e"/><linearGradient id="aj" x1="26.24" y1="51.73" x2="261.64" y2="134.45" xlink:href="#e"/></defs><g id="b"><g id="c"><g id="d"><path id="f" d="m17.21,120.51c2.75,0,4.95-2.2,4.95-4.95s-2.2-4.95-4.95-4.95-4.95,2.2-4.95,4.95,2.2,4.95,4.95,4.95" fill="url(#e)" fill-rule="evenodd" stroke-width="0"/></g><path id="h" d="m32.06,135.22c2.75,0,4.95-2.2,4.95-4.95s-2.2-4.95-4.95-4.95-4.95,2.2-4.95,4.95c0,2.75,2.2,4.95,4.95,4.95" fill="url(#g)" fill-rule="evenodd" stroke-width="0"/><path id="j" d="m32.06,120.55c2.75,0,4.95-2.2,4.95-4.95s-2.2-4.95-4.95-4.95-4.95,2.2-4.95,4.95,2.2,4.95,4.95,4.95" fill="url(#i)" fill-rule="evenodd" stroke-width="0"/><path id="l" d="m46.73,105.7c2.75,0,4.95-2.2,4.95-4.95s-2.2-4.95-4.95-4.95-4.95,2.2-4.95,4.95,2.2,4.95,4.95,4.95" fill="url(#k)" fill-rule="evenodd" stroke-width="0"/><g id="m"><path id="o" d="m62.57,125.53c-.73-.18-1.65-.18-2.38,0-.92.18-1.83,0-2.38-.55l-5.68-5.68c-.55-.55-.92-1.47-.55-2.38.18-.73.18-1.47,0-2.2-.37-1.83-1.83-3.3-3.85-3.85-.73-.18-1.65-.18-2.2,0-.92.18-1.83,0-2.38-.55-1.47-1.47-4.22-4.22-5.68-5.68-.55-.55-.92-1.47-.55-2.38.18-.55.18-1.28.18-2.02-.37-1.83-2.2-3.85-4.03-4.22-3.3-.55-6.23,2.38-5.68,5.68.37,1.83,2.2,3.85,4.22,4.03.73.18,1.28,0,2.02-.18.92-.18,1.83,0,2.38.55,1.47,1.47,4.22,4.22,5.68,5.68.55.55.92,1.47.55,2.38-.18.73-.18,1.47,0,2.2.37,1.83,1.83,3.3,3.85,3.85.73.18,1.65.18,2.2,0,.92-.18,1.83,0,2.38.55l5.68,5.68c.55.55.92,1.47.55,2.38-.18.37-.18.73-.18,1.28,0,.37,0,.92.18,1.28.18.92,0,1.83-.55,2.38l-5.68,5.68c-.55.55-1.47.92-2.38.55-.55-.18-1.28-.18-2.02-.18-1.83.37-3.85,2.2-4.22,4.03-.55,3.3,2.38,6.23,5.68,5.68,1.83-.37,3.85-2.2,4.03-4.22.18-.73,0-1.28-.18-2.02-.18-.92,0-1.83.55-2.38,1.47-1.47,4.22-4.22,5.68-5.68.55-.55,1.47-.92,2.38-.55.37.18.73.18,1.28.18,2.93,0,5.32-2.75,4.77-5.87-.18-1.47-1.65-3.12-3.67-3.48" fill="url(#n)" fill-rule="evenodd" stroke-width="0"/></g><path id="q" d="m61.58,120.55c2.75,0,4.95-2.2,4.95-4.95s-2.2-4.95-4.95-4.95-4.95,2.2-4.95,4.95,2.2,4.95,4.95,4.95" fill="url(#p)" fill-rule="evenodd" stroke-width="0"/><g id="r"><path id="t" d="m45.44,135.07c.55.18,1.28.18,2.02.18,1.83-.37,3.85-2.2,4.22-4.03.55-3.3-2.38-6.23-5.68-5.68-1.83.37-3.85,2.2-4.03,4.22-.18.73,0,1.28.18,2.02.18.92,0,1.83-.55,2.38-1.47,1.47-4.22,4.22-5.68,5.68-.55.55-1.47.92-2.38.55-.37-.18-.73-.18-1.28-.18-.37,0-.92,0-1.28.18-.92.18-1.83,0-2.38-.55-1.47-1.47-4.22-4.22-5.68-5.68-.55-.55-.92-1.47-.55-2.38.18-.55.18-1.28.18-2.02-.37-1.83-2.2-3.85-4.03-4.22-3.3-.55-6.23,2.38-5.68,5.68.37,1.83,2.2,3.85,4.22,4.03.73.18,1.28,0,2.02-.18.92-.18,1.83,0,2.38.55,1.47,1.47,4.22,4.22,5.68,5.68.55.55.92,1.47.55,2.38-.18.73-.18,1.47,0,2.38.37,1.83,2.02,3.48,3.85,3.85,3.12.55,5.87-1.83,5.87-4.77,0-.37,0-.92-.18-1.28-.18-.92,0-1.83.55-2.38,1.47-1.47,4.22-4.22,5.68-5.68.37-.73,1.28-.92,2.02-.73" fill="url(#s)" fill-rule="evenodd" stroke-width="0"/></g><path id="v" d="m84.13,128.62c.18,2.2,1.1,4.03,3.48,4.03s3.12-1.47,3.12-3.48c0-2.2-1.1-3.48-4.4-4.95-4.4-2.02-6.23-3.85-6.23-7.7,0-4.22,2.75-7.15,7.52-7.15,5.87,0,7.33,4.03,7.52,7.33h-4.58c-.18-1.47-.55-3.67-2.93-3.67-1.83,0-2.75,1.28-2.75,2.93,0,1.83.92,2.75,3.85,4.22,4.77,2.2,6.78,4.22,6.78,8.62,0,4.03-2.57,7.52-8.07,7.52-6.05,0-7.88-3.85-8.07-7.88h4.77v.18Z" fill="url(#u)" fill-rule="evenodd" stroke-width="0"/><polygon id="x" points="104.11 113.95 98.43 113.95 98.43 109.74 114.38 109.74 114.38 113.95 108.7 113.95 108.7 136.14 104.11 136.14 104.11 113.95" fill="url(#w)" fill-rule="evenodd" stroke-width="0"/><path id="z" d="m125.56,125.32c-.92-4.95-1.83-8.62-2.2-11.18h-.18c-.37,2.38-1.1,6.42-2.2,11.18l-.92,4.03-1.28,6.6h-4.77l6.42-26.22h6.05l6.23,26.22h-4.95l-1.28-6.6-.92-4.03Z" fill="url(#y)" fill-rule="evenodd" stroke-width="0"/><path id="ab" d="m141.15,121.1h2.2c2.75,0,4.03-1.28,4.03-3.85,0-2.2-1.1-3.48-3.48-3.48h-2.75s0,7.33,0,7.33Zm0,3.67v11.18h-4.58v-26.22h8.07c4.77,0,7.52,2.57,7.52,7.15,0,3.85-2.02,5.5-3.48,6.05,2.02.92,2.93,2.75,2.93,6.6v1.1c0,2.93.18,4.03.37,5.5h-4.58c-.37-1.28-.37-3.3-.37-5.5v-.92c0-3.48-.73-4.77-3.85-4.77h-2.02v-.18Z" fill="url(#aa)" fill-rule="evenodd" stroke-width="0"/><path id="ad" d="m161.86,132.29h1.65c3.67,0,4.95-2.75,4.95-9.72,0-6.05-1.1-8.62-4.95-8.62h-1.65v18.33Zm-4.77-22.55h6.78c6.78,0,9.35,4.4,9.35,12.65,0,8.8-2.57,13.75-9.72,13.75h-6.42v-26.4Z" fill="url(#ac)" fill-rule="evenodd" stroke-width="0"/><path id="af" d="m182.95,109.74v17.97c0,2.2.55,4.77,3.48,4.77,2.75,0,3.48-2.2,3.48-4.58v-18.15h4.77v18.15c0,4.77-1.83,8.62-8.25,8.62s-8.07-3.67-8.07-8.62v-18.15s4.58,0,4.58,0Z" fill="url(#ae)" fill-rule="evenodd" stroke-width="0"/><path id="ah" d="m203.67,128.62c.18,2.2,1.1,4.03,3.48,4.03s3.12-1.47,3.12-3.48c0-2.2-1.1-3.48-4.4-4.95-4.58-2.2-6.23-4.03-6.23-7.88,0-4.22,2.75-7.15,7.52-7.15,5.87,0,7.33,4.03,7.52,7.33h-4.58c-.18-1.47-.55-3.67-2.93-3.67-1.83,0-2.75,1.28-2.75,2.93,0,1.83.92,2.75,3.85,4.22,4.77,2.2,6.78,4.22,6.78,8.62,0,4.03-2.57,7.52-8.07,7.52-6.05,0-7.88-3.85-8.07-7.88h4.77v.37Z" fill="url(#ag)" fill-rule="evenodd" stroke-width="0"/><g id="ai"><polygon id="ak" points="223.6 113.99 217.92 113.99 217.92 109.78 233.87 109.78 233.87 113.99 228.37 113.99 228.37 135.99 223.6 135.99 223.6 113.99" fill="url(#aj)" fill-rule="evenodd" stroke-width="0"/></g></g></g></svg>