<?xml version="1.0" encoding="UTF-8"?><svg id="a" xmlns="http://www.w3.org/2000/svg" xmlns:xlink="http://www.w3.org/1999/xlink" viewBox="0 0 256 256"><defs><linearGradient id="b" x1="9.72" y1="128" x2="246.28" y2="128" gradientUnits="userSpaceOnUse"><stop offset="0" stop-color="#00ffa3"/><stop offset="1" stop-color="#dc1fff"/></linearGradient></defs><path d="m128,8.72C62.65,8.72,9.72,62.1,9.72,128s52.92,119.28,118.28,119.28,118.28-53.39,118.28-119.28S193.31,8.72,127.96,8.72h.04Zm0,5.24c30.17,0,58.59,11.88,79.95,33.39,21.31,21.43,33.2,50.44,33.12,80.65,0,30.44-11.76,59.1-33.12,80.65-21.08,21.4-49.9,33.43-79.95,33.39-30.05.04-58.87-12-79.95-33.39-21.31-21.43-33.24-50.44-33.16-80.65,0-30.44,11.8-59.1,33.12-80.65C69.1,25.92,97.95,13.88,128,13.96h0Zm-5.94,41.97c-19.26,5.17-37.08,15.07-60.84,42.32s-19.26,49.78-19.26,49.78c0,0,6.56-15.49,22.33-31.8,7.49-7.72,13.05-10.33,16.89-10.33,3.41-.19,6.29,2.56,6.29,5.98v55.33c0,5.47-3.53,6.68-6.79,6.6-2.76-.04-5.32-1.01-5.32-1.01,16.19,23.53,54.94,26.83,54.94,26.83l17.01-18.18.39.35,15.57,13.28c28.5-16.93,42.25-48.3,42.25-48.3-12.73,13.43-20.81,16.58-25.63,16.58-4.27-.04-5.94-2.53-5.94-2.53-.23-1.16-.62-18.02-.78-34.87-.16-17.44,0-34.91.86-34.95,4.93-9.24,20.62-27.88,20.62-27.88-29.31,5.79-45.28,25-45.28,25-4.73-3.73-14.37-3.11-14.37-3.11,4.5,2.48,9.01,9.71,9.01,15.69v58.87s-9.83,8.66-17.39,8.66c-4.5,0-7.26-2.45-8.77-4.47-.58-.78-1.09-1.63-1.48-2.56v-72.69c-1.05.78-2.33,1.2-3.61,1.25-1.63,0-3.3-.81-4.43-3.18-.86-1.79-1.4-4.47-1.4-8.39,0-13.4,15.14-22.29,15.14-22.29v.02Z" fill="url(#b)" stroke-width="0"/></svg>